<svg xmlns="http://www.w3.org/2000/svg" xmlns:xlink="http://www.w3.org/1999/xlink" width="16.021" height="15.02" viewBox="0 0 16.021 15.02">
  <defs>
    <linearGradient id="linear-gradient" x1="0.5" x2="0.5" y2="1" gradientUnits="objectBoundingBox">
      <stop offset="0" stop-color="#d88d00"/>
      <stop offset="1" stop-color="#edc500"/>
    </linearGradient>
  </defs>
  <g id="Grupo_1850" data-name="Grupo 1850" transform="translate(0 0)">
    <path id="Trazado_31" data-name="Trazado 31" d="M1965.47,12.905l0,0a.5.5,0,0,1-.357.151.5.5,0,0,1-.341-.866,1,1,0,0,0,0-1.4.5.5,0,0,1-.16-.365.5.5,0,0,1,.858-.349l0,0a2,2,0,0,1,0,2.832m-2.417,5.593a1,1,0,0,1-1-1V17.49h0a4.562,4.562,0,0,0-2.652-2.1l0-.007a.531.531,0,0,1,.179-1.031.517.517,0,0,1,.235.058,5.27,5.27,0,0,1,3.157,2.411c.014.034.026-.015.036-.122a3.937,3.937,0,0,0,.045-.458V14.8c.008-1.131,0-2.311,0-2.311V10.237s.008-1.116,0-2.183V6.733a3.373,3.373,0,0,0-.039-.4c-.011-.151-.024-.223-.042-.182-.8,1.9-4.425,3.332-8.774,3.332l-.214,0h-.444a.5.5,0,0,0-.5.5.5.5,0,0,1-.5.5h-.5a1,1,0,1,0,0,2h.5a.5.5,0,0,1,.5.5.5.5,0,0,0,.5.5h.47l.188,0c.06,0,.118,0,.178,0a1.749,1.749,0,0,1,1.555,1.074l.006.017,1.513,3.786a.777.777,0,0,1-.8,1.126h-.947a1.962,1.962,0,0,1-1.7-1.126l-.877-2.2h0a.507.507,0,0,1-.038-.191.49.49,0,0,1,.952-.163l.884,2.176a.838.838,0,0,0,.7.5h.355c.276,0,.41-.224.3-.5l-1.22-3a.837.837,0,0,0-.7-.5h-1.064a1.25,1.25,0,0,1-1.1-.652s0-.009,0-.013a1.537,1.537,0,0,1-.079-.178.253.253,0,0,0-.221-.166,2,2,0,0,1,0-3.99.247.247,0,0,0,.162-.073.253.253,0,0,0,.059-.093v0a1.249,1.249,0,0,1,1.179-.841h.871c3.911,0,7.17-1.359,7.891-3.066,0,0,0,0,.007-.006a1,1,0,0,1,2,.068V17.5a1,1,0,0,1-1,1" transform="translate(-1950.036 -4.48)" fill="#fff" fill-rule="evenodd"/>
    <path id="Trazado_32" data-name="Trazado 32" d="M1976.787,40.465a.751.751,0,1,1-.751.751.752.752,0,0,1,.751-.751" transform="translate(-1969.528 -31.457)" fill-rule="evenodd" fill="url(#linear-gradient)"/>
  </g>
</svg>
