<svg xmlns="http://www.w3.org/2000/svg" width="14.794" height="16.908" viewBox="0 0 14.794 16.908">
  <g id="Grupo_1848" data-name="Grupo 1848" transform="translate(0 0)">
    <path id="Trazado_25" data-name="Trazado 25" d="M616.717,15.274h-8.982a1.585,1.585,0,0,1-1.585-1.585V2.593A2.114,2.114,0,0,1,608.263.48h3.963A1.321,1.321,0,0,1,613.546,1.8V4.707A1.056,1.056,0,0,0,614.6,5.764a.528.528,0,1,1,0,1.057,2.113,2.113,0,0,1-2.113-2.113V2.065a.529.529,0,0,0-.528-.528h-3.7a1.056,1.056,0,0,0-1.057,1.057V13.425a.793.793,0,0,0,.792.793h8.718a1.056,1.056,0,0,0,1.057-1.057V6.42a1.053,1.053,0,0,0-.309-.747l-2.932-2.931a.529.529,0,0,1,.748-.748l2.931,2.931a2.109,2.109,0,0,1,.619,1.494v6.741a2.113,2.113,0,0,1-2.114,2.113M614.6,16.331a.528.528,0,1,1,0,1.057h-7.925a2.642,2.642,0,0,1-2.642-2.642V6.82a.528.528,0,0,1,1.057,0v7.925a1.585,1.585,0,0,0,1.585,1.585Zm-10.039-11.1a.528.528,0,1,1,.528-.528.529.529,0,0,1-.528.528" transform="translate(-604.036 -0.48)" fill="#fff" fill-rule="evenodd"/>
    <path id="Trazado_26" data-name="Trazado 26" d="M648.439,19.48a.793.793,0,1,1-.792.793.793.793,0,0,1,.792-.793" transform="translate(-636.126 -14.46)" fill="#fdca00" fill-rule="evenodd"/>
  </g>
</svg>
