<svg id="Grupo_3109" data-name="Grupo 3109" xmlns="http://www.w3.org/2000/svg" width="16.966" height="18.233" viewBox="0 0 16.966 18.233">
  <path id="Trazado_65" data-name="Trazado 65" d="M1808.519,11.783a.565.565,0,1,1-.565.565.566.566,0,0,1,.565-.565m0-6.782a1.7,1.7,0,0,0-1.7,1.7.566.566,0,0,1-1.131,0,2.828,2.828,0,1,1,3.926,2.6s0,0,0,0a.847.847,0,0,0-.53.786.459.459,0,0,1-.01.1.565.565,0,0,1-1.121-.1,1.979,1.979,0,0,1,1.212-1.823l0,0A1.694,1.694,0,0,0,1808.519,5m6.221,10.173h-3.959a1.686,1.686,0,0,0-1.015.337l-3.576,2.68-.015.011a1.7,1.7,0,0,1-2.746-1.333v-1.13a.566.566,0,0,0-.566-.565h-.565a2.261,2.261,0,0,1-2.262-2.261V2.741A2.262,2.262,0,0,1,1802.3.48h9.614a.565.565,0,1,1,0,1.13h-9.331a1.414,1.414,0,0,0-1.414,1.413v9.608a1.414,1.414,0,0,0,1.414,1.413h.566a1.414,1.414,0,0,1,1.414,1.413v1.413a.566.566,0,0,0,.888.465h0l3.6-2.7s0,0,0,0a2.815,2.815,0,0,1,1.73-.591h3.676a1.414,1.414,0,0,0,1.414-1.413V3.306a.566.566,0,0,1,1.131,0v9.608a2.261,2.261,0,0,1-2.262,2.261" transform="translate(-1800.036 -0.332)" fill="#fff" fill-rule="evenodd"/>
  <path id="Trazado_66" data-name="Trazado 66" d="M1849.959,0a.923.923,0,1,1-.923.923.924.924,0,0,1,.923-.923" transform="translate(-1835.455 0.002)" fill="#fdca00" fill-rule="evenodd"/>
</svg>
