<svg id="Grupo_1453" data-name="Grupo 1453" xmlns="http://www.w3.org/2000/svg" xmlns:xlink="http://www.w3.org/1999/xlink" width="32" height="29" viewBox="0 0 32 29">
  <defs>
    <linearGradient id="linear-gradient" x1="0.5" x2="0.5" y2="1" gradientUnits="objectBoundingBox">
      <stop offset="0" stop-color="#d88d00"/>
      <stop offset="1" stop-color="#edc500"/>
    </linearGradient>
  </defs>
  <rect id="Rectángulo_2985" data-name="Rectángulo 2985" width="32" height="29" fill="none"/>
  <g id="Grupo_1451" data-name="Grupo 1451" transform="translate(5 5.393)">
    <path id="Trazado_95" data-name="Trazado 95" d="M619.281,326.35h-16.5a2.749,2.749,0,0,1-2.749-2.749v-9.623a2.746,2.746,0,0,1,2.59-2.741l1-1.763a2.354,2.354,0,0,1,1.941-.994h4.124a2.378,2.378,0,0,1,1.949.994l1.013,1.755h5.939a.687.687,0,1,1,0,1.375h-6.186a1.081,1.081,0,0,1-.36-.068h0a1.344,1.344,0,0,1-.72-.59l-.779-1.429a1.476,1.476,0,0,0-1.228-.663h-3.466a1.462,1.462,0,0,0-1.222.663l-.768,1.429a1.115,1.115,0,0,1-1.079.657,1.66,1.66,0,0,0-1.375,1.718v8.935a1.713,1.713,0,0,0,1.58,1.7.682.682,0,0,0,.138.014h15.808a1.719,1.719,0,0,0,1.718-1.718v-6.186a1.719,1.719,0,0,0-1.718-1.718H605.191a1.031,1.031,0,0,0-1.031,1.031v3.78a.687.687,0,0,1-1.375,0v-3.437c0-.077.006-.154.011-.229,0-.039-.011-.076-.011-.114v-.344a2.062,2.062,0,0,1,2.062-2.062h.344c.039,0,.076.009.114.011.076-.005.153-.011.229-.011h13.746a2.75,2.75,0,0,1,2.749,2.749V323.6a2.749,2.749,0,0,1-2.749,2.749" transform="translate(-600.036 -308.48)" fill="#fff" fill-rule="evenodd"/>
    <path id="Trazado_96" data-name="Trazado 96" d="M608.067,347.48a1.031,1.031,0,1,1-1.031,1.031,1.032,1.032,0,0,1,1.031-1.031" transform="translate(-604.63 -334.077)" fill-rule="evenodd" fill="url(#linear-gradient)"/>
  </g>
</svg>
