<svg xmlns="http://www.w3.org/2000/svg" xmlns:xlink="http://www.w3.org/1999/xlink" width="27.373" height="25.267" viewBox="0 0 27.373 25.267">
  <defs>
    <linearGradient id="linear-gradient" x1="0.5" x2="0.5" y2="1" gradientUnits="objectBoundingBox">
      <stop offset="0" stop-color="#005ca4"/>
      <stop offset="1" stop-color="#008cce"/>
    </linearGradient>
    <linearGradient id="linear-gradient-2" x1="0.5" x2="0.5" y2="1" gradientUnits="objectBoundingBox">
      <stop offset="0" stop-color="#d88d00"/>
      <stop offset="1" stop-color="#edc500"/>
    </linearGradient>
  </defs>
  <g id="Grupo_1386" data-name="Grupo 1386" transform="translate(0 0)">
    <path id="Trazado_209" data-name="Trazado 209" d="M473.619,1075.747H453.4a3.369,3.369,0,0,1-3.369-3.369v-6.329a2.106,2.106,0,0,1,2.106-2.106,2.206,2.206,0,0,1,1.378.514c.01.008.014,0,.021.008a5.019,5.019,0,0,0,3.233,1.175h3.579a2.1,2.1,0,0,1,1.75.935c.007.011.017.016.025.024a1.68,1.68,0,0,0,2.765,0c.008-.008.019-.012.025-.024a2.1,2.1,0,0,1,1.751-.935h3.58a5.053,5.053,0,0,0,4.962-4.109,1.649,1.649,0,0,0,.091-.524V1058.9a1.684,1.684,0,0,0-1.684-1.684H453.4a1.684,1.684,0,0,0-1.684,1.684v2.527a.842.842,0,1,1-1.684,0V1058.9a3.37,3.37,0,0,1,3.369-3.369h20.214a3.37,3.37,0,0,1,3.369,3.369v1.684a6.706,6.706,0,0,1-1.685,4.447,6.454,6.454,0,0,1-.477.489l-.028.026q-.236.215-.491.409c-.021.017-.043.032-.064.048-.158.117-.323.227-.493.331l-.1.064c-.159.092-.322.177-.487.256l-.143.07c-.157.07-.317.132-.48.191-.06.023-.119.047-.18.066-.156.052-.317.094-.477.135-.069.017-.137.038-.206.052-.164.037-.333.06-.5.084-.068.01-.132.024-.2.031a6.626,6.626,0,0,1-.72.04h-2.974a.843.843,0,0,0-.709.387.043.043,0,0,1-.029.018,2.511,2.511,0,0,1-2.183,1.279H462.67a2.511,2.511,0,0,1-2.183-1.279.043.043,0,0,1-.029-.018.843.843,0,0,0-.709-.387h-2.975a6.685,6.685,0,0,1-4.364-1.623c.015.026.019.04.008.028a.422.422,0,0,0-.7.319v6.329a1.684,1.684,0,0,0,1.684,1.685h20.214a1.684,1.684,0,0,0,1.684-1.685v-.842a.842.842,0,0,1,1.685,0v.842a3.369,3.369,0,0,1-3.369,3.369m-5.9-21.9a.843.843,0,0,1-.842-.842.843.843,0,0,0-.842-.842h-5.053a.843.843,0,0,0-.842.842.842.842,0,0,1-1.684,0v-.421a2.106,2.106,0,0,1,2.106-2.106h5.9a2.106,2.106,0,0,1,2.106,2.106v.421a.842.842,0,0,1-.842.842" transform="translate(-450.036 -1050.479)" fill-rule="evenodd" fill="url(#linear-gradient)"/>
    <path id="Trazado_210" data-name="Trazado 210" d="M510.3,1089.48a1.263,1.263,0,1,1-1.263,1.263,1.264,1.264,0,0,1,1.263-1.263" transform="translate(-484.19 -1073.056)" fill-rule="evenodd" fill="url(#linear-gradient-2)"/>
  </g>
</svg>
