<svg id="Grupo_1443" data-name="Grupo 1443" xmlns="http://www.w3.org/2000/svg" width="26" height="26" viewBox="0 0 26 26">
  <rect id="Rectángulo_2982" data-name="Rectángulo 2982" width="26" height="26" fill="none"/>
  <g id="Grupo_1291" data-name="Grupo 1291" transform="translate(3.651 3.651)">
    <path id="Trazado_55" data-name="Trazado 55" d="M907.176,15.355V9.405a.595.595,0,1,1,1.19,0v5.95a.595.595,0,1,1-1.19,0m4.165-1.785a.6.6,0,0,1-.6-.6V9.405a.6.6,0,1,1,1.19,0v3.57a.6.6,0,0,1-.595.6m0,2.38a.6.6,0,1,1,.595-.6.6.6,0,0,1-.595.6M916.7,6.43h-11.6a1.488,1.488,0,0,0-1.488,1.488v8.925a1.488,1.488,0,0,0,1.488,1.488h8.925a1.488,1.488,0,0,0,1.488-1.488V11.785a.6.6,0,1,1,1.19,0v5.355a2.379,2.379,0,0,1-2.38,2.38H904.8a2.38,2.38,0,0,1-2.38-2.38V7.62a2.381,2.381,0,0,1,2.38-2.38h11.9a1.19,1.19,0,0,0,0-2.38h-4.463c-.658,0-.83-1.19-1.488-1.19h-2.38c-.657,0-.83,1.19-1.487,1.19h-4.463a1.19,1.19,0,0,0-1.19,1.19.6.6,0,1,1-1.19,0,2.381,2.381,0,0,1,2.38-2.38h3.273c.657,0,.83-1.19,1.488-1.19h4.76c.658,0,.83,1.19,1.488,1.19H916.7a2.38,2.38,0,0,1,0,4.76" transform="translate(-900.036 -0.48)" fill="#fff" fill-rule="evenodd"/>
    <path id="Trazado_56" data-name="Trazado 56" d="M951.929,26.48a.893.893,0,1,1-.892.893.893.893,0,0,1,.892-.893" transform="translate(-935.863 -18.745)" fill="#fff" fill-rule="evenodd"/>
  </g>
</svg>
