<svg xmlns="http://www.w3.org/2000/svg" xmlns:xlink="http://www.w3.org/1999/xlink" width="22.951" height="22.955" viewBox="0 0 22.951 22.955">
  <defs>
    <linearGradient id="linear-gradient" x1="0.5" x2="0.5" y2="1" gradientUnits="objectBoundingBox">
      <stop offset="0" stop-color="#3b3d42"/>
      <stop offset="1" stop-color="#a1a5aa"/>
    </linearGradient>
  </defs>
  <g id="Grupo_3475" data-name="Grupo 3475" transform="translate(0 -0.001)">
    <path id="Trazado_47" data-name="Trazado 47" d="M922.2,1061.275l-3.84,2.94a1.427,1.427,0,0,0-.518,1.1,1.462,1.462,0,0,0,.049.363l1.534,5.169c-.041-.033-.053-.011-.023.085a1.922,1.922,0,0,1-2.943,2.144l-.666-.468h0a.793.793,0,0,1,.438-1.454.782.782,0,0,1,.495.178l0,0,.2.143a.522.522,0,0,0,.283.085.538.538,0,0,0,.538-.538.532.532,0,0,0-.018-.138.066.066,0,0,1,0-.029l-1.418-4.913a2.863,2.863,0,0,1,1.022-3.049c.006,0,.009-.01.014-.014l3.665-2.825a.538.538,0,0,0-.325-.966c-.037,0-.05,0-.043,0h-4.525a2.867,2.867,0,0,1-2.646-1.921l-1.522-4.345a.455.455,0,0,0-.1-.165.476.476,0,0,0-.673,0,.46.46,0,0,0-.116.19c0,.011,0,.006-.007.007l-1.51,4.313a2.868,2.868,0,0,1-2.646,1.921h-4.524c.007,0-.006,0-.043,0a.538.538,0,0,0-.324.967l3.664,2.824c.006,0,.008.01.014.014a2.862,2.862,0,0,1,1.022,3.049l-1.417,4.913a.062.062,0,0,1-.005.029.539.539,0,0,0,.52.676.521.521,0,0,0,.283-.085l3.744-2.669.006,0a2.859,2.859,0,0,1,1.645-.534l.02,0h.006a.745.745,0,0,1,0,1.489.711.711,0,0,0-.4.126l-4.546,3.2a1.922,1.922,0,0,1-3.03-1.57,1.94,1.94,0,0,1,.087-.574c.03-.1.018-.117-.023-.085l1.533-5.169a1.452,1.452,0,0,0,.049-.363,1.426,1.426,0,0,0-.519-1.1l-3.839-2.94a2.028,2.028,0,0,1,1.243-3.63h.024l4.687-.005a1.432,1.432,0,0,0,1.285-.936l1.909-5.432c-.1.384-.154.606-.058.332a1.7,1.7,0,0,1,3.2-.014c.088.247.056.1-.021-.209l1.872,5.323a1.432,1.432,0,0,0,1.286.936l4.686.005h.024a2.028,2.028,0,0,1,1.243,3.63" transform="translate(-900.036 -1050.468)" fill-rule="evenodd" fill="url(#linear-gradient)"/>
    <path id="Trazado_48" data-name="Trazado 48" d="M937.814,1102.48a1.267,1.267,0,0,1,1.2,1.665,1.228,1.228,0,0,1-.8.8,1.265,1.265,0,1,1-.4-2.464" transform="translate(-923.692 -1084.577)" fill-rule="evenodd" fill="url(#linear-gradient)"/>
  </g>
</svg>
