<svg xmlns="http://www.w3.org/2000/svg" xmlns:xlink="http://www.w3.org/1999/xlink" width="28" height="28.005" viewBox="0 0 28 28.005">
  <defs>
    <linearGradient id="linear-gradient" x1="0.5" x2="0.5" y2="1" gradientUnits="objectBoundingBox">
      <stop offset="0" stop-color="#005ca4"/>
      <stop offset="1" stop-color="#008cce"/>
    </linearGradient>
    <linearGradient id="linear-gradient-2" x1="0.5" x2="0.5" y2="1" gradientUnits="objectBoundingBox">
      <stop offset="0" stop-color="#d88d00"/>
      <stop offset="1" stop-color="#edc500"/>
    </linearGradient>
  </defs>
  <g id="Grupo_3540" data-name="Grupo 3540" transform="translate(0 3.477)">
    <g id="Grupo_3540-2" data-name="Grupo 3540" transform="translate(0 -3.477)">
      <path id="Trazado_47" data-name="Trazado 47" d="M900.994,1063.652l4.684,3.586a1.741,1.741,0,0,1,.633,1.337,1.786,1.786,0,0,1-.059.443l-1.871,6.306c.05-.04.064-.014.028.1a2.345,2.345,0,0,0,3.59,2.616l.812-.571h0a.967.967,0,0,0-.534-1.774.954.954,0,0,0-.6.217l0,0-.247.175a.636.636,0,0,1-.346.1.656.656,0,0,1-.634-.825.081.081,0,0,0,.006-.036l1.729-5.994a3.492,3.492,0,0,0-1.247-3.72c-.007-.006-.01-.012-.018-.017l-4.471-3.446a.656.656,0,0,1,.4-1.178c.045,0,.061,0,.053-.006h5.52a3.5,3.5,0,0,0,3.228-2.343l1.857-5.3a.557.557,0,0,1,.123-.2.581.581,0,0,1,.821,0,.563.563,0,0,1,.142.231c0,.013.006.007.009.009l1.842,5.262a3.5,3.5,0,0,0,3.229,2.343h5.519c-.008,0,.007.006.053.006a.656.656,0,0,1,.4,1.18l-4.47,3.445c-.007.006-.01.012-.018.017a3.492,3.492,0,0,0-1.247,3.72l1.729,5.994a.076.076,0,0,0,.006.036.657.657,0,0,1-.634.825.635.635,0,0,1-.346-.1l-4.567-3.256-.008,0a3.489,3.489,0,0,0-2.007-.652l-.024,0h-.007a.908.908,0,0,0,0,1.817.866.866,0,0,1,.492.153l5.546,3.9a2.344,2.344,0,0,0,3.7-1.916,2.37,2.37,0,0,0-.106-.7c-.037-.117-.022-.143.027-.1l-1.871-6.306a1.769,1.769,0,0,1-.06-.443,1.74,1.74,0,0,1,.633-1.337l4.684-3.586a2.474,2.474,0,0,0-1.517-4.429h-.029l-5.718-.006a1.747,1.747,0,0,1-1.568-1.141l-2.329-6.627c.12.468.188.739.071.405a2.073,2.073,0,0,0-3.9-.018c-.108.3-.069.117.025-.255l-2.284,6.494a1.747,1.747,0,0,1-1.569,1.141l-5.716.006h-.029a2.474,2.474,0,0,0-1.517,4.429" transform="translate(-900.036 -1050.469)" fill-rule="evenodd" fill="url(#linear-gradient)"/>
      <path id="Trazado_48" data-name="Trazado 48" d="M937.814,1102.48a1.267,1.267,0,0,0-1.2,1.665,1.228,1.228,0,0,0,.8.8,1.265,1.265,0,1,0,.4-2.464" transform="translate(-927.114 -1079.527)" fill-rule="evenodd" fill="url(#linear-gradient-2)"/>
    </g>
  </g>
</svg>
