<svg xmlns="http://www.w3.org/2000/svg" xmlns:xlink="http://www.w3.org/1999/xlink" width="24.083" height="38.532" viewBox="0 0 24.083 38.532">
  <defs>
    <linearGradient id="linear-gradient" x1="0.5" x2="0.5" y2="1" gradientUnits="objectBoundingBox">
      <stop offset="0" stop-color="#d88d00"/>
      <stop offset="1" stop-color="#edc500"/>
    </linearGradient>
  </defs>
  <g id="Grupo_2033" data-name="Grupo 2033" transform="translate(0 0.001)">
    <path id="Trazado_11" data-name="Trazado 11" d="M168.057,613.725a1.2,1.2,0,0,1-1.2-1.2,7.225,7.225,0,0,1,7.225-7.225,1.2,1.2,0,0,1,0,2.408,4.818,4.818,0,0,0-4.817,4.817,1.2,1.2,0,0,1-1.2,1.2m13.621,8.112a.3.3,0,0,0,.09-.052,1.241,1.241,0,0,0-.465.971v1.806a4.815,4.815,0,0,1-4.817,4.817h-6.021a1.2,1.2,0,1,0,0,2.408h4.816a1.2,1.2,0,1,1,0,2.408h-3.01a1.17,1.17,0,0,1-.253-.028,3.2,3.2,0,0,1-.349.028h-1.2a3.612,3.612,0,1,1,0-7.225h6.021a2.408,2.408,0,0,0,2.408-2.408v-1.806A3.6,3.6,0,0,1,180.168,620a1.689,1.689,0,0,1-.328.222,9.633,9.633,0,1,0-11.527,0,1.688,1.688,0,0,1-.328-.222,3.6,3.6,0,0,1,1.275,2.753v.6a1.2,1.2,0,0,1-2.408,0v-.6a1.241,1.241,0,0,0-.465-.971.294.294,0,0,0,.09.052,12.042,12.042,0,1,1,15.2,0m-8.8,14.767h2.408a1.2,1.2,0,0,1,0,2.408h-2.408a1.2,1.2,0,0,1,0-2.408" transform="translate(-162.036 -600.481)" fill-rule="evenodd" fill="url(#linear-gradient)"/>
    <path id="Trazado_12" data-name="Trazado 12" d="M190.064,650.48a1.812,1.812,0,0,1,1.717,2.381A1.756,1.756,0,0,1,190.638,654a1.808,1.808,0,1,1-.574-3.523" transform="translate(-172.471 -620.378)" fill="#fdca00" fill-rule="evenodd"/>
  </g>
</svg>
