<svg xmlns="http://www.w3.org/2000/svg" xmlns:xlink="http://www.w3.org/1999/xlink" width="42" height="42" viewBox="0 0 42 42">
  <defs>
    <linearGradient id="linear-gradient" x1="0.5" x2="0.5" y2="1" gradientUnits="objectBoundingBox">
      <stop offset="0" stop-color="#d88d00"/>
      <stop offset="1" stop-color="#edc500"/>
    </linearGradient>
  </defs>
  <g id="Grupo_1634" data-name="Grupo 1634" transform="translate(0)">
    <rect id="Rectángulo_2985" data-name="Rectángulo 2985" width="42" height="42" transform="translate(0)" fill="none"/>
    <g id="Grupo_1629" data-name="Grupo 1629" transform="translate(5.297 7.26)">
      <path id="Trazado_121" data-name="Trazado 121" d="M778.5,470.183a.982.982,0,0,0-.981.981v.491a2.454,2.454,0,0,1-3.888,1.991h0l-2.412-1.811a3.92,3.92,0,0,1-1.549-3.124v-1.963a2.454,2.454,0,0,0-2.454-2.453H754.452A2.454,2.454,0,0,0,752,466.748v6.87a2.447,2.447,0,0,0,2.081,2.416.248.248,0,0,0,.034.013,2.646,2.646,0,0,1,1.811,2.44v1.019a.49.49,0,0,0,.491.491.5.5,0,0,0,.28-.087l4.128-3.1a3.666,3.666,0,0,1,2.217-.742h3.68a.981.981,0,0,1,0,1.963h-3.435a2.447,2.447,0,0,0-1.5.509h0l-3.937,2.953h0a2.454,2.454,0,0,1-3.888-1.991v-.613a1.066,1.066,0,0,0-.981-.981.143.143,0,0,1-.032-.015,3.922,3.922,0,0,1-2.912-3.788v-7.851a3.927,3.927,0,0,1,3.926-3.926H767.7a3.926,3.926,0,0,1,3.926,3.926v2.454a1.96,1.96,0,0,0,.787,1.572l2.368,1.776a.5.5,0,0,0,.28.087.49.49,0,0,0,.491-.491v-.981a2.555,2.555,0,0,1,1.963-2.454,2.355,2.355,0,0,0,1.963-2.454V458.9a2.454,2.454,0,0,0-2.454-2.454H764.267a2.454,2.454,0,0,0-2.454,2.454v.491a.981.981,0,1,1-1.963,0v-.981a3.927,3.927,0,0,1,3.926-3.926h13.74a3.927,3.927,0,0,1,3.926,3.926v7.851c0,2.169-1.552,3.926-2.944,3.926" transform="translate(-750.036 -454.48)" fill="#ba0c2f" fill-rule="evenodd"/>
      <path id="Trazado_122" data-name="Trazado 122" d="M790.508,493.48a1.472,1.472,0,1,1-1.472,1.472,1.473,1.473,0,0,1,1.472-1.472" transform="translate(-769.898 -474.342)" fill-rule="evenodd" fill="url(#linear-gradient)"/>
    </g>
  </g>
</svg>
