<?xml version="1.0" encoding="utf-8"?>
<!-- Generator: Adobe Illustrator 22.1.0, SVG Export Plug-In . SVG Version: 6.00 Build 0)  -->
<svg version="1.1" id="Capa_1" xmlns="http://www.w3.org/2000/svg" xmlns:xlink="http://www.w3.org/1999/xlink" x="0px" y="0px"
	 viewBox="0 0 70.6 59.8" style="enable-background:new 0 0 70.6 59.8;" xml:space="preserve">
<style type="text/css">
	.st0{fill:#5697D7;}
	.st1{fill:#FFFFFF;}
</style>
<title>Email</title>
<path class="st0" d="M12,0h46.6c6.6,0,12,5.4,12,12v35.8c0,6.6-5.4,12-12,12H12c-6.6,0-12-5.4-12-12V12C0,5.4,5.4,0,12,0z"/>
<path class="st1" d="M5.2,13.6l29.1,22.9c1.2,1,3-0.8,1.8-1.8L7,11.9C5.7,10.9,4,12.6,5.2,13.6z"/>
<path class="st1" d="M63.4,11.9L34.4,34.7c-1.3,1,0.5,2.8,1.8,1.8l29.1-22.9C66.5,12.6,64.7,10.9,63.4,11.9z"/>
</svg>
