<svg xmlns="http://www.w3.org/2000/svg" viewBox="0 0 24 24"><defs><style>.cls-1{fill:none;}</style></defs><title>icon-ll-Recurso 1</title><g id="Capa_2" data-name="Capa 2"><g id="Capa_1-2" data-name="Capa 1"><rect class="cls-1" width="24" height="24"/><path d="M12.82,16.2h0ZM12.65,16l.6-.6.7-.69a2,2,0,0,1,3,0c.71.71,1.43,1.42,2.16,2.16a2,2,0,0,1,0,3,4.83,4.83,0,0,1-.8.6l-.25.16-.71.42-.31.17a4.46,4.46,0,0,1-3.46.29L13,21.36c-.38-.15-.8-.33-1.25-.54A18.67,18.67,0,0,1,8,18.39,15.27,15.27,0,0,1,6.62,17.1c-.36-.37-.69-.75-1-1.15a18.69,18.69,0,0,1-2.48-4.1c-.22-.49-.4-.95-.54-1.36A4.53,4.53,0,0,1,2.44,10a4.26,4.26,0,0,1,.45-3.48l.19-.28c.14-.21.29-.42.43-.61A2.51,2.51,0,0,1,3.7,5.4a4.74,4.74,0,0,1,.43-.5,2,2,0,0,1,3,0c.32.31,1.66,1.66,2.15,2.15a2,2,0,0,1,0,3l-.73.73L8,11.35l-.06.07.15.35a12.47,12.47,0,0,0,.73,1.35,6.08,6.08,0,0,0,.91,1.16,6.62,6.62,0,0,0,1,.81,11.25,11.25,0,0,0,1.43.82l.42.19ZM18,17.94c-.73-.74-1.45-1.45-2.15-2.15a.53.53,0,0,0-.87,0l-.69.69-.6.6-.28.27a1.12,1.12,0,0,1-1.18.24c-.15-.06-.41-.17-.75-.33a15.3,15.3,0,0,1-1.62-.92,8.85,8.85,0,0,1-1.22-1,7.75,7.75,0,0,1-1.13-1.44,12.35,12.35,0,0,1-.82-1.52c-.14-.31-.25-.56-.3-.69a1.14,1.14,0,0,1,.25-1.17l.25-.25.55-.55L8.19,9a.55.55,0,0,0,0-.91C7.7,7.62,6.36,6.27,6.05,6a.54.54,0,0,0-.87,0c-.08.08-.18.2-.31.36l-.16.21c-.13.17-.26.36-.39.55l-.18.27a2.85,2.85,0,0,0-.27,2.2A4.44,4.44,0,0,0,4,10c.13.37.29.78.49,1.23A17.53,17.53,0,0,0,6.78,15c.29.36.6.71.92,1A15.57,15.57,0,0,0,9,17.24a16.85,16.85,0,0,0,3.48,2.22c.41.2.8.37,1.14.5l.45.16a3.14,3.14,0,0,0,2.25-.18,2.08,2.08,0,0,1,.3-.17l.67-.4.22-.14a3.86,3.86,0,0,0,.54-.39A.55.55,0,0,0,18,17.94ZM21.75,12a.75.75,0,0,1-1.5,0A8.25,8.25,0,0,0,12,3.75a.75.75,0,0,1,0-1.5A9.76,9.76,0,0,1,21.75,12Zm-3,0a.75.75,0,0,1-1.5,0A5.25,5.25,0,0,0,12,6.75a.75.75,0,0,1,0-1.5A6.75,6.75,0,0,1,18.75,12Z"/></g></g></svg>