<svg xmlns="http://www.w3.org/2000/svg" viewBox="0 0 93.2 98"><title>icon-companyRecurso 1</title><g id="Capa_2" data-name="Capa 2"><g id="Capa_1-2" data-name="Capa 1"><path d="M33.87,0V34.38H53.32V98H93.2V0ZM51.11,29.81H40.38V19.08H51.11Zm0-15.2H40.38V3.88H51.11Zm17.79,76H58.17V79.9H68.9Zm0-15.2H58.17V64.69H68.9Zm0-15.2H58.17V49.49H68.9Zm0-15.2H58.17V34.29H68.9Zm0-15.2H58.17V19.08H68.9Zm0-15.2H58.17V3.88H68.9Zm17.79,76H76V79.9H86.69Zm0-15.2H76V64.69H86.69Zm0-15.2H76V49.49H86.69Zm0-15.2H76V34.29H86.69Zm0-15.2H76V19.08H86.69Zm0-15.2H76V3.88H86.69Z"/><path d="M0,36.38V98H51.2V36.38Zm22.77,57.4h-16v-10h16Zm0-14.39h-16v-10h16Zm0-14.39h-16V55h16Zm0-14.39h-16v-10h16ZM44.38,93.78h-16v-10h16Zm0-14.39h-16v-10h16Zm0-14.39h-16V55h16Zm0-14.39h-16v-10h16Z"/></g></g></svg>