<?xml version="1.0" encoding="utf-8"?>
<!-- Generator: Adobe Illustrator 22.1.0, SVG Export Plug-In . SVG Version: 6.00 Build 0)  -->
<svg version="1.1" id="Capa_1" xmlns="http://www.w3.org/2000/svg" xmlns:xlink="http://www.w3.org/1999/xlink" x="0px" y="0px"
	 viewBox="0 0 61.3 69" style="enable-background:new 0 0 61.3 69;" xml:space="preserve">
<style type="text/css">
	.st0{fill:#5697D7;}
</style>
<title>Usuario</title>
<path class="st0" d="M0,69c-0.1-6.6,2.1-13.1,6.1-18.4c4.6-6.3,11.6-10.6,19.3-11.8c7.6-1.4,15.6,0.2,22,4.5
	c7.2,4.6,12.1,12,13.5,20.4c0.3,1.7,0.5,3.5,0.4,5.2H0V69z"/>
<path class="st0" d="M32.4,0c0.8,0.2,1.6,0.3,2.3,0.5c6.8,1.9,11.1,6.3,12.5,13.1c1.8,9.2-4.1,18.1-13.3,19.9S15.8,29.4,14,20.2
	c-1.7-8.5,3.2-16.8,11.5-19.5c0.9-0.3,1.9-0.5,2.9-0.6c0.1,0,0.3,0,0.4-0.1C28.8,0,32.4,0,32.4,0z"/>
</svg>
