<?xml version="1.0" encoding="utf-8"?>
<!-- Generator: Adobe Illustrator 22.1.0, SVG Export Plug-In . SVG Version: 6.00 Build 0)  -->
<svg version="1.1" id="Capa_1" xmlns="http://www.w3.org/2000/svg" xmlns:xlink="http://www.w3.org/1999/xlink" x="0px" y="0px"
	 viewBox="0 0 248.1 43.2" style="enable-background:new 0 0 248.1 43.2;" xml:space="preserve">
<style type="text/css">
	.st0{fill:url(#SVGID_1_);}
	.st1{fill:url(#SVGID_2_);}
	.st2{fill:url(#SVGID_3_);}
	.st3{fill:url(#SVGID_4_);}
	.st4{fill:#5A595B;}
</style>
<title>Recurso 2</title>
<g id="Capa_2_1_">
	<g id="Home">
		
			<linearGradient id="SVGID_1_" gradientUnits="userSpaceOnUse" x1="11.97" y1="34.03" x2="6.18" y2="39.82" gradientTransform="matrix(1 0 0 -1 0 46)">
			<stop  offset="0" style="stop-color:#C02340"/>
			<stop  offset="0.31" style="stop-color:#BC233E"/>
			<stop  offset="0.63" style="stop-color:#AF2436"/>
			<stop  offset="0.96" style="stop-color:#9B262B"/>
			<stop  offset="0.99" style="stop-color:#982629"/>
		</linearGradient>
		<polygon class="st0" points="12.3,0 12.3,12.3 0,12.3 		"/>
		
			<linearGradient id="SVGID_2_" gradientUnits="userSpaceOnUse" x1="26898.2402" y1="-12668.2002" x2="26892.4395" y2="-12662.4004" gradientTransform="matrix(-1 0 0 1 26929.4395 12699.4004)">
			<stop  offset="0" style="stop-color:#C02340"/>
			<stop  offset="0.31" style="stop-color:#BC233E"/>
			<stop  offset="0.63" style="stop-color:#AF2436"/>
			<stop  offset="0.96" style="stop-color:#9B262B"/>
			<stop  offset="0.99" style="stop-color:#982629"/>
		</linearGradient>
		<polygon class="st1" points="30.8,43.2 30.8,30.8 43.2,30.8 		"/>
		
			<linearGradient id="SVGID_3_" gradientUnits="userSpaceOnUse" x1="0.179" y1="2.781" x2="12.209" y2="14.991" gradientTransform="matrix(1 0 0 -1 0 46)">
			<stop  offset="0" style="stop-color:#D78E30"/>
			<stop  offset="1" style="stop-color:#F1C930"/>
		</linearGradient>
		<polygon class="st2" points="30.8,30.8 30.8,43.2 0,43.2 0,12.3 12.3,12.3 12.3,30.8 		"/>
		
			<linearGradient id="SVGID_4_" gradientUnits="userSpaceOnUse" x1="42.7912" y1="45.6088" x2="30.5812" y2="33.4088" gradientTransform="matrix(1 0 0 -1 0 46)">
			<stop  offset="0" style="stop-color:#365EA3"/>
			<stop  offset="1" style="stop-color:#538AC8"/>
		</linearGradient>
		<polygon class="st3" points="12.3,12.3 12.3,0 43.2,0 43.2,30.8 30.8,30.8 30.8,12.3 		"/>
		<path class="st4" d="M67.8,6.7h-6.5v17.7h4v-4.9h2.1c4.2,0,7.6-2.6,7.6-6.4V13C75,9.3,71.8,6.7,67.8,6.7z M71.1,13.2
			c0,1.5-2,2.3-3.6,2.3h-2.2v-4.7h2.1C69.2,10.7,71.1,11.6,71.1,13.2L71.1,13.2z"/>
		<path class="st4" d="M240.9,6.7h-3.6l-7.3,17.7h4.1l1.5-3.7h6.8l1.5,3.7h4.2L240.9,6.7z M237,17l2-5l1.9,5H237z"/>
		<rect x="223.4" y="6.7" class="st4" width="4" height="17.7"/>
		<path class="st4" d="M217.4,15.3c1.3-0.8,2-2.2,1.9-3.7v-0.1c0-1.2-0.4-2.3-1.2-3.2c-1.2-1.2-2.8-1.8-4.5-1.7H206v17.7h7.9
			c4.1,0,6.5-1.6,6.5-4.8v0C220.5,17.7,219.3,15.9,217.4,15.3z M210.1,10.7h3.1c0.8,0,2.2,0.1,2.2,1.5v0.1c0,1.1-0.8,1.4-2.4,1.4
			h-2.9V10.7z M216.4,19.2c0,1.1-0.9,1.5-2.5,1.5h-3.8v-3.3h3.7C215.5,17.4,216.4,18,216.4,19.2L216.4,19.2z"/>
		<polygon class="st4" points="193.6,13.8 189.4,6.7 185.3,6.7 185.3,24.4 189.3,24.4 189.3,13.8 193.5,20.7 193.8,20.7 198.3,13.7 
			198.3,24.4 202.3,24.4 202.3,6.7 197.9,6.7 		"/>
		<path class="st4" d="M173.4,6.6c-4.9,0-9,3.9-9,8.9c0,0.1,0,0.2,0,0.3l0,0c-0.2,4.9,3.6,8.9,8.5,9.1c0.1,0,0.3,0,0.4,0
			c5,0,9-4,9-9c0-0.1,0-0.1,0-0.2v-0.1c0.1-4.9-3.7-8.9-8.5-9.1C173.6,6.6,173.5,6.6,173.4,6.6z M178.1,15.8c0.2,2.7-1.7,5-4.4,5.3
			c-2.7,0.2-5-1.7-5.3-4.4c0-0.3,0-0.6,0-0.9v-0.1c-0.2-2.7,1.9-5,4.6-5.2c0.1,0,0.1,0,0.2,0c2.8,0.1,4.9,2.4,4.9,5.1
			C178.1,15.7,178.1,15.7,178.1,15.8z"/>
		<polygon class="st4" points="155.1,6.7 151,6.7 151,24.4 163.3,24.4 163.3,20.7 155.1,20.7 		"/>
		<path class="st4" d="M139.7,6.6c-5,0-9,4-9.1,8.9c0,0.1,0,0.2,0,0.2l0,0c-0.1,4.9,3.7,9,8.6,9.1c0.1,0,0.2,0,0.4,0
			c5,0,9-3.9,9.1-8.9c0-0.1,0-0.2,0-0.2v-0.1c0.1-4.9-3.8-9-8.7-9.1C139.9,6.6,139.8,6.6,139.7,6.6z M144.4,15.8
			c0,3-1.9,5.2-4.6,5.2s-4.7-2.3-4.7-5.3v-0.1c0-3,1.9-5.2,4.6-5.2S144.3,12.7,144.4,15.8L144.4,15.8z"/>
		<path class="st4" d="M126.8,19c-1,1.2-2.6,2-4.2,2c-2.7,0-4.6-2.3-4.6-5.3v-0.1c0-3,1.9-5.2,4.6-5.2c1.6,0.1,3.1,0.7,4.1,1.9
			l0.1,0.1l2.6-3.1l-0.1-0.1c-1.7-1.8-4.1-2.8-6.6-2.7c-5.1,0-8.8,3.9-8.8,9.2l0,0c-0.1,2.4,0.8,4.7,2.4,6.5
			c1.6,1.7,3.8,2.7,6.2,2.6c2.7,0.1,5.3-1.1,6.9-3.2l0.1-0.1l-2.5-2.7L126.8,19z"/>
		<path class="st4" d="M102.6,6.6c-5,0-9.1,4-9.2,9c0,0,0,0.1,0,0.1l0,0c-0.1,4.9,3.8,9,8.8,9.1c0.1,0,0.2,0,0.3,0c5,0,9.1-4,9.2-9
			c0,0,0-0.1,0-0.1v-0.1c0.1-4.9-3.9-9-8.8-9.1C102.8,6.6,102.7,6.6,102.6,6.6z M107.6,15.8c0,2.8-2.2,5-5,5s-5-2.2-5-5l0,0v-0.1
			c0-2.8,2.3-5,5-5C105.4,10.8,107.7,13,107.6,15.8z"/>
		<path class="st4" d="M87.8,18.2c2.2-0.9,3.6-3,3.5-5.4v-0.1c0.1-1.5-0.5-3-1.5-4.2c-1.3-1.3-3.1-2-5-1.9h-7.8v17.7h3.9v-5.3h2.8
			l3.6,5.3H92L87.8,18.2z M87.1,13c0.1,1.2-0.8,2.3-2.1,2.4c-0.1,0-0.3,0-0.4,0h-3.7v-4.7h3.6C86.3,10.7,87.1,11.5,87.1,13L87.1,13z
			"/>
		<path class="st4" d="M61.3,31.4h3.8v0.8h-2.9v1.3h2.6v0.8h-2.6v1.4h2.9v0.8h-3.8V31.4z"/>
		<path class="st4" d="M67.4,33.9l-1.8-2.5h1.1l1.3,1.8l1.3-1.8h1l-1.8,2.5l1.9,2.6h-1.1l-1.3-2l-1.4,2h-1L67.4,33.9z"/>
		<path class="st4" d="M71,31.4h2c0.9-0.2,1.8,0.5,2,1.4c0,0.1,0,0.2,0,0.3l0,0c0,1-0.9,1.8-1.8,1.8c-0.1,0-0.1,0-0.2,0h-1v1.7h-1
			V31.4z M73,34.1c0.7,0,1.1-0.4,1.1-0.9l0,0c0-0.6-0.4-0.9-1.1-0.9h-1v1.8L73,34.1z"/>
		<path class="st4" d="M75.4,34L75.4,34c0-1.5,1.2-2.6,2.6-2.7c0,0,0.1,0,0.1,0c1.4,0,2.6,1.1,2.7,2.5c0,0,0,0.1,0,0.1l0,0
			c-0.1,1.5-1.4,2.6-2.8,2.5C76.6,36.4,75.5,35.3,75.4,34L75.4,34z M79.9,34L79.9,34c0-1-0.7-1.8-1.7-1.8c0,0,0,0-0.1,0
			c-1,0-1.7,0.8-1.7,1.7c0,0,0,0,0,0.1l0,0c0,1,0.7,1.8,1.7,1.8c0,0,0,0,0.1,0C79.1,35.8,79.9,35,79.9,34C79.9,34,79.9,34,79.9,34z"
			/>
		<path class="st4" d="M81.6,31.4h2.3c0.5,0,1.1,0.2,1.5,0.5c0.3,0.3,0.4,0.7,0.4,1.1l0,0c0,0.7-0.5,1.4-1.2,1.5l1.4,2h-1.1
			l-1.3-1.8h-1.1v1.8h-0.9V31.4z M83.9,33.9c0.6,0,1-0.3,1-0.9l0,0c0-0.5-0.4-0.8-1.1-0.8h-1.3V34L83.9,33.9z"/>
		<path class="st4" d="M87.9,32.2h-1.6v-0.8h4.2v0.8h-1.6v4.3h-0.9L87.9,32.2z"/>
		<path class="st4" d="M92.3,31.4h0.8l2.3,5.2h-1l-0.5-1.2h-2.4L91,36.5h-0.9L92.3,31.4z M93.6,34.5l-0.9-2.1l-0.9,2.1H93.6z"/>
		<path class="st4" d="M95.5,34L95.5,34c0-1.4,1.1-2.6,2.5-2.7c0,0,0.1,0,0.1,0c0.7,0,1.5,0.3,2,0.8l-0.6,0.7
			c-0.4-0.4-0.9-0.6-1.4-0.6c-0.9,0-1.7,0.8-1.7,1.7c0,0,0,0,0,0.1l0,0c-0.1,1,0.7,1.8,1.6,1.8c0,0,0,0,0,0c0.6,0,1.1-0.2,1.5-0.7
			l0.6,0.6c-0.5,0.6-1.3,0.9-2.1,0.9C96.7,36.6,95.5,35.5,95.5,34C95.5,34,95.5,34,95.5,34z"/>
		<path class="st4" d="M100.9,31.4h0.9v5.1h-0.9V31.4z"/>
		<path class="st4" d="M102.7,34L102.7,34c0.1-1.5,1.4-2.6,2.8-2.5c1.4,0.1,2.4,1.2,2.5,2.5l0,0c0,1.5-1.2,2.6-2.6,2.7
			c0,0-0.1,0-0.1,0c-1.4,0-2.6-1.1-2.7-2.5C102.7,34.1,102.7,34,102.7,34z M107.2,34L107.2,34c0-1-0.7-1.8-1.7-1.8c0,0,0,0-0.1,0
			c-1,0-1.7,0.8-1.7,1.7c0,0,0,0,0,0.1l0,0c0,1,0.7,1.8,1.7,1.8c0,0,0,0,0.1,0C106.4,35.8,107.2,35,107.2,34
			C107.2,34,107.2,34,107.2,34z"/>
		<path class="st4" d="M108.9,31.4h0.8l2.8,3.5v-3.5h0.9v5.1h-0.8l-2.8-3.7v3.7h-0.9L108.9,31.4z"/>
		<path class="st4" d="M114.5,31.4h3.8v0.8h-2.9v1.3h2.6v0.8h-2.6v1.4h2.9v0.8h-3.8L114.5,31.4z"/>
		<path class="st4" d="M118.8,35.8l0.6-0.7c0.4,0.4,1,0.7,1.6,0.7c0.6,0,0.9-0.2,0.9-0.6l0,0c0-0.4-0.2-0.6-1.2-0.8
			s-1.7-0.6-1.7-1.6l0,0c0-0.9,0.8-1.5,1.6-1.5c0,0,0.1,0,0.1,0c0.7,0,1.3,0.2,1.9,0.6l-0.5,0.7c-0.4-0.3-0.9-0.5-1.4-0.5
			c-0.5,0-0.8,0.3-0.8,0.6l0,0c0,0.4,0.2,0.6,1.2,0.8s1.7,0.7,1.7,1.5l0,0c0,1-0.8,1.5-1.8,1.5C120.1,36.6,119.4,36.3,118.8,35.8z"
			/>
		<path class="st4" d="M126.8,32.2h-1.6v-0.8h4.2v0.8h-1.6v4.3h-0.9V32.2z"/>
		<path class="st4" d="M129.9,34.3v-3h0.9v2.9c0,1,0.5,1.5,1.3,1.5s1.3-0.5,1.3-1.4v-3h0.9v3c0.1,1.1-0.6,2.2-1.8,2.3
			c-0.1,0-0.3,0-0.4,0c-1.1,0.1-2.1-0.7-2.2-1.8C129.9,34.7,129.9,34.5,129.9,34.3z"/>
		<path class="st4" d="M135.3,31.4h2.3c0.5,0,1.1,0.2,1.5,0.5c0.3,0.3,0.4,0.7,0.4,1.1l0,0c0,0.7-0.5,1.4-1.2,1.5l1.4,2h-1.1
			l-1.3-1.8h-1.1v1.8h-0.9V31.4z M137.5,33.9c0.6,0,1.1-0.3,1.1-0.9l0,0c0-0.5-0.4-0.8-1.1-0.8h-1.3V34L137.5,33.9z"/>
		<path class="st4" d="M140.4,31.4h0.9v5.1h-0.9V31.4z"/>
		<path class="st4" d="M142.1,35.8l0.5-0.7c0.4,0.4,1,0.7,1.6,0.7c0.6,0,0.9-0.2,0.9-0.6l0,0c0-0.4-0.2-0.6-1.2-0.8
			s-1.7-0.6-1.7-1.5l0,0c0-0.9,0.7-1.6,1.6-1.5c0,0,0.1,0,0.1,0c0.7,0,1.3,0.2,1.9,0.6l-0.5,0.7c-0.4-0.3-0.9-0.5-1.4-0.5
			c-0.5,0-0.8,0.3-0.8,0.6l0,0c0,0.4,0.2,0.6,1.2,0.8s1.6,0.7,1.6,1.5l0,0c0,1-0.8,1.5-1.8,1.5C143.4,36.6,142.7,36.3,142.1,35.8z"
			/>
		<path class="st4" d="M146.9,31.4h1l1.6,2.4l1.6-2.4h1v5.1h-1v-3.7l-1.6,2.4l0,0l-1.6-2.4v3.7h-0.9L146.9,31.4z"/>
		<path class="st4" d="M152.7,34L152.7,34c0-1.5,1.2-2.6,2.6-2.7c0,0,0.1,0,0.1,0c1.4,0,2.6,1.1,2.7,2.5c0,0,0,0.1,0,0.1l0,0
			c-0.1,1.5-1.4,2.6-2.8,2.5C153.9,36.4,152.8,35.3,152.7,34L152.7,34z M157.2,34L157.2,34c0-1-0.7-1.8-1.7-1.8c0,0,0,0-0.1,0
			c-1,0-1.7,0.8-1.7,1.7c0,0,0,0,0,0.1l0,0c0,1,0.7,1.8,1.7,1.8c0,0,0,0,0.1,0C156.4,35.8,157.2,35,157.2,34
			C157.2,34,157.2,34,157.2,34z"/>
		<path class="st4" d="M161,31.4h0.9v5.1H161V31.4z"/>
		<path class="st4" d="M163,31.4h0.8l2.8,3.5v-3.5h0.9v5.1h-0.8l-2.8-3.7v3.7H163V31.4z"/>
		<path class="st4" d="M168.1,31.4h1l1.6,4l1.5-4h1l-2.1,5.2h-0.8L168.1,31.4z"/>
		<path class="st4" d="M173.7,31.4h3.8v0.8h-2.9v1.3h2.6v0.8h-2.6v1.4h2.9v0.8h-3.9V31.4z"/>
		<path class="st4" d="M178.4,31.4h2.3c0.5,0,1.1,0.2,1.5,0.5c0.3,0.3,0.4,0.7,0.4,1.1l0,0c0,0.7-0.5,1.4-1.2,1.5l1.4,2h-1.1
			l-1.3-1.8h-1.1v1.8h-0.9V31.4z M180.6,33.9c0.6,0,1.1-0.3,1.1-0.9l0,0c0-0.5-0.4-0.8-1.1-0.8h-1.3V34L180.6,33.9z"/>
		<path class="st4" d="M183.1,35.8l0.5-0.7c0.4,0.4,1,0.7,1.6,0.7c0.6,0,0.9-0.2,0.9-0.6l0,0c0-0.4-0.2-0.6-1.2-0.8
			s-1.7-0.6-1.7-1.5l0,0c0-0.9,0.8-1.5,1.7-1.5c0,0,0.1,0,0.1,0c0.7,0,1.3,0.2,1.9,0.6l-0.5,0.7c-0.4-0.3-0.9-0.5-1.4-0.5
			c-0.5,0-0.8,0.3-0.8,0.6l0,0c0,0.4,0.2,0.6,1.2,0.8s1.6,0.7,1.6,1.5l0,0c0,1-0.8,1.5-1.8,1.5C184.5,36.6,183.7,36.3,183.1,35.8z"
			/>
		<path class="st4" d="M187.9,31.4h0.9v5.1h-0.9V31.4z"/>
		<path class="st4" d="M189.7,34L189.7,34c0.1-1.5,1.4-2.6,2.8-2.5c1.4,0.1,2.4,1.2,2.5,2.5l0,0c-0.1,1.5-1.4,2.6-2.8,2.5
			C190.9,36.4,189.8,35.4,189.7,34z M194.2,34L194.2,34c0-1-0.7-1.8-1.7-1.8c0,0,0,0-0.1,0c-1,0-1.7,0.8-1.7,1.7c0,0,0,0,0,0.1l0,0
			c0,1,0.8,1.7,1.7,1.7C193.4,35.7,194.2,34.9,194.2,34C194.2,34,194.2,34,194.2,34L194.2,34z M192.9,29.9l0.8,0.4l-0.9,0.7H192
			L192.9,29.9z"/>
		<path class="st4" d="M195.9,31.4h0.8l2.8,3.5v-3.5h0.9v5.1h-0.8l-2.8-3.7v3.7h-0.9V31.4z"/>
		<path class="st4" d="M203.4,31.4h1l1.6,2.4l1.6-2.4h1v5.1h-0.9v-3.7l-1.6,2.4l0,0l-1.6-2.4v3.7h-0.9L203.4,31.4z"/>
		<path class="st4" d="M211.4,31.4h0.8l2.3,5.2h-0.9l-0.5-1.2h-2.4l-0.6,1.2h-0.9L211.4,31.4z M212.6,34.5l-0.9-2.1l-0.9,2.1H212.6z
			"/>
		<path class="st4" d="M215.1,31.4h2.3c0.5,0,1.1,0.2,1.5,0.5c0.3,0.3,0.4,0.7,0.4,1.1l0,0c0,0.8-0.5,1.4-1.3,1.6l1.4,2h-1.1
			l-1.3-1.8H216v1.8h-0.9L215.1,31.4z M217.3,33.9c0.6,0,1.1-0.3,1.1-0.9l0,0c0-0.5-0.4-0.8-1.1-0.8H216V34L217.3,33.9z"/>
		<path class="st4" d="M219.9,34L219.9,34c0-1.4,1.1-2.6,2.5-2.7c0,0,0.1,0,0.1,0c0.7,0,1.5,0.3,2,0.8l-0.6,0.7
			c-0.4-0.4-0.9-0.6-1.4-0.6c-0.9,0-1.7,0.8-1.7,1.7c0,0,0,0,0,0.1l0,0c-0.1,1,0.7,1.8,1.6,1.8c0,0,0,0,0,0c0.6,0,1.1-0.2,1.5-0.7
			l0.6,0.6c-0.5,0.6-1.3,0.9-2.1,0.9C221.1,36.6,219.9,35.5,219.9,34C219.9,34,219.9,34,219.9,34z"/>
		<path class="st4" d="M227.1,31.4h0.8l2.3,5.2h-0.9l-0.5-1.2h-2.4l-0.5,1.2h-0.9L227.1,31.4z M228.4,34.5l-0.9-2.1l-0.9,2.1H228.4z
			"/>
		<path class="st4" d="M232.8,31.4h2c0.9-0.1,1.8,0.5,2,1.4c0,0.1,0,0.2,0,0.3l0,0c0,1-0.9,1.8-1.9,1.8c-0.1,0-0.1,0-0.2,0h-1v1.7
			h-0.9L232.8,31.4z M234.8,34.1c0.7,0,1.1-0.4,1.1-0.9l0,0c0-0.6-0.4-0.9-1.1-0.9h-1.1v1.8L234.8,34.1z"/>
		<path class="st4" d="M238.7,31.4h0.8l2.3,5.2h-1l-0.5-1.2h-2.4l-0.5,1.2h-0.9L238.7,31.4z M240,34.5l-0.9-2.1l-0.9,2.1H240z"/>
		<path class="st4" d="M242.5,31.4h0.9v5.1h-0.9V31.4z M243.4,29.9l0.8,0.4l-0.9,0.7h-0.7L243.4,29.9z"/>
		<path class="st4" d="M244.1,35.8l0.6-0.7c0.4,0.4,1,0.7,1.6,0.7c0.6,0,0.9-0.2,0.9-0.6l0,0c0-0.4-0.2-0.6-1.2-0.8
			s-1.7-0.6-1.7-1.5l0,0c0-0.9,0.8-1.5,1.6-1.5c0,0,0.1,0,0.1,0c0.7,0,1.4,0.2,1.9,0.7l-0.5,0.7c-0.4-0.3-0.9-0.5-1.4-0.5
			c-0.5,0-0.8,0.3-0.8,0.6l0,0c0,0.4,0.2,0.6,1.2,0.8s1.6,0.7,1.6,1.5l0,0c0,1-0.8,1.5-1.8,1.5C245.5,36.6,244.7,36.3,244.1,35.8z"
			/>
	</g>
</g>
</svg>
