<?xml version="1.0" encoding="utf-8"?>
<!-- Generator: Adobe Illustrator 22.1.0, SVG Export Plug-In . SVG Version: 6.00 Build 0)  -->
<svg version="1.1" id="Capa_1" xmlns="http://www.w3.org/2000/svg" xmlns:xlink="http://www.w3.org/1999/xlink" x="0px" y="0px"
	 viewBox="0 0 48.9 82.9" style="enable-background:new 0 0 48.9 82.9;" xml:space="preserve">
<style type="text/css">
	.st0{fill:#5697D7;}
</style>
<title>Celular</title>
<path class="st0" d="M41.4,82.9c0,0,7.5,0,7.5-7.5V7.5C48.9,0,41.4,0,41.4,0H7.5C7.5,0,0,0,0,7.5v67.8c0,7.5,7.5,7.5,7.5,7.5
	L41.4,82.9L41.4,82.9z M24.4,79.8c-2.1,0-3.8-1.7-3.8-3.8c0-2.1,1.7-3.8,3.8-3.8s3.8,1.7,3.8,3.8S26.5,79.8,24.4,79.8L24.4,79.8z
	 M3.8,9.4h41.4v60.2H3.8V9.4z"/>
</svg>
