<svg xmlns="http://www.w3.org/2000/svg" viewBox="0 0 100 82.6"><defs><style>.cls-1{fill:#585858;}</style></defs><title>reset-icon-Recurso 1</title><g id="Capa_2" data-name="Capa 2"><g id="Capa_1-2" data-name="Capa 1"><path class="cls-1" d="M89.8,40.3c0,.1,1.5-1.3,1.5-1.2H100L84.9,56.6,69.6,39.1h8.7c0-.1,1.9,1.3,1.9,1.2,0-16.7-12.9-30.2-28.8-30.2a27.7,27.7,0,0,0-18.8,7.4L26.2,9.9A37.23,37.23,0,0,1,51.4,0C72.6,0,89.8,18.1,89.8,40.3Z"/><path class="cls-1" d="M10.2,42.3c0-.1-1.5,1.3-1.5,1.2H0L15.1,26,30.4,43.5H21.7c0,.1-1.9-1.3-1.9-1.2,0,16.7,12.9,30.2,28.8,30.2a27.7,27.7,0,0,0,18.8-7.4l6.4,7.6a37.23,37.23,0,0,1-25.2,9.9C27.4,82.6,10.2,64.5,10.2,42.3Z"/></g></g></svg>