<svg xmlns="http://www.w3.org/2000/svg" viewBox="0 0 60.52 90"><defs><style>.cls-1{fill:#fff;}</style></defs><title>icon-downloadRecurso 1</title><g id="Capa_2" data-name="Capa 2"><g id="Capa_1-2" data-name="Capa 1"><path class="cls-1" d="M60.09,37.9,31.69,69.1a1.93,1.93,0,0,1-2.8,0L.49,37.9a1.86,1.86,0,0,1,1.4-3.1h13.9V1.8A1.79,1.79,0,0,1,17.59,0h25.2a1.79,1.79,0,0,1,1.8,1.8v33h13.9A1.9,1.9,0,0,1,60.09,37.9Zm.4,50.6v-10A1.54,1.54,0,0,0,59,77H1.59a1.54,1.54,0,0,0-1.5,1.5v10A1.54,1.54,0,0,0,1.59,90h57.5A1.39,1.39,0,0,0,60.49,88.5Z"/></g></g></svg>