<?xml version="1.0" encoding="utf-8"?>
<!-- Generator: Adobe Illustrator 22.1.0, SVG Export Plug-In . SVG Version: 6.00 Build 0)  -->
<svg version="1.1" id="Capa_1" xmlns="http://www.w3.org/2000/svg" xmlns:xlink="http://www.w3.org/1999/xlink" x="0px" y="0px"
	 viewBox="0 0 79 49" style="enable-background:new 0 0 79 49;" xml:space="preserve">
<style type="text/css">
	.st0{fill:#FFFFFF;}
</style>
<title>icon-btn-contineRecurso 1</title>
<g id="Capa_2_1_">
	<g id="Capa_1-2">
		<path class="st0" d="M77.7,27.7c0.9-0.8,1.4-2,1.3-3.2c0-1.2-0.5-2.3-1.3-3.1l-20-20c-0.8-0.9-2-1.4-3.2-1.4
			c-1.2,0-2.4,0.5-3.2,1.4c-0.8,0.8-1.3,2-1.3,3.2c0,1.2,0.5,2.4,1.3,3.2L63.7,20H4.5c-1.2,0-2.4,0.5-3.2,1.4
			c-0.8,0.8-1.3,2-1.3,3.1C0,27,1.9,29,4.4,29c0,0,0.1,0,0.1,0h59.2L51.3,41.3c-0.8,0.8-1.3,2-1.3,3.2c0,2.5,1.9,4.5,4.4,4.5
			c0,0,0.1,0,0.1,0c1.2,0,2.3-0.5,3.2-1.3L77.7,27.7z"/>
	</g>
</g>
</svg>
