<?xml version="1.0" encoding="UTF-8" standalone="no"?>
<!DOCTYPE svg PUBLIC "-//W3C//DTD SVG 1.1//EN" "http://www.w3.org/Graphics/SVG/1.1/DTD/svg11.dtd">
<svg version="1.1" xmlns="http://www.w3.org/2000/svg" xmlns:xlink="http://www.w3.org/1999/xlink" preserveAspectRatio="xMidYMid meet" viewBox="0 0 640 640" width="640" height="640"><defs><path d="M363.89 640L363.89 224.52L236.87 224.52L236.87 0L624.33 0L624.33 640L363.89 640ZM395.56 591.74L465.63 591.74L465.63 521.8L395.56 521.8L395.56 591.74ZM512 591.74L581.81 591.74L581.81 521.8L512 521.8L512 591.74ZM395.56 492.47L465.63 492.47L465.63 422.47L395.56 422.47L395.56 492.47ZM512 492.47L581.81 492.47L581.81 422.47L512 422.47L512 492.47ZM395.56 393.21L465.63 393.21L465.63 323.2L395.56 323.2L395.56 393.21ZM512 393.21L581.81 393.21L581.81 323.2L512 323.2L512 393.21ZM395.56 293.94L465.63 293.94L465.63 223.93L395.56 223.93L395.56 293.94ZM512 293.94L581.81 293.94L581.81 223.93L512 223.93L512 293.94ZM279.38 194.68L349.45 194.68L349.45 124.6L279.38 124.6L279.38 194.68ZM395.56 194.68L465.63 194.68L465.63 124.6L395.56 124.6L395.56 194.68ZM512 194.68L581.81 194.68L581.81 124.6L512 124.6L512 194.68ZM279.38 95.41L349.45 95.41L349.45 25.34L279.38 25.34L279.38 95.41ZM395.56 95.41L465.63 95.41L465.63 25.34L395.56 25.34L395.56 95.41ZM512 95.41L581.81 95.41L581.81 25.34L512 25.34L512 95.41Z" id="a5qFurg1hJ"></path><path d="M15.67 640L15.67 237.58L350.04 237.58L350.04 640L15.67 640ZM59.89 612.44L164.38 612.44L164.38 547.13L59.89 547.13L59.89 612.44ZM201.01 612.44L305.5 612.44L305.5 547.13L201.01 547.13L201.01 612.44ZM201.01 518.47L305.5 518.47L305.5 453.16L201.01 453.16L201.01 518.47ZM59.89 518.47L164.38 518.47L164.38 453.16L59.89 453.16L59.89 518.47ZM59.89 424.49L164.38 424.49L164.38 359.18L59.89 359.18L59.89 424.49ZM201.01 424.49L305.5 424.49L305.5 359.18L201.01 359.18L201.01 424.49ZM201.01 330.51L305.5 330.51L305.5 265.21L201.01 265.21L201.01 330.51ZM59.89 330.51L164.38 330.51L164.38 265.21L59.89 265.21L59.89 330.51Z" id="d2iBEKuil"></path></defs><g><g><g><use xlink:href="#a5qFurg1hJ" opacity="1" fill="#5697d7" fill-opacity="1"></use><g><use xlink:href="#a5qFurg1hJ" opacity="1" fill-opacity="0" stroke="#000000" stroke-width="1" stroke-opacity="0"></use></g></g><g><use xlink:href="#d2iBEKuil" opacity="1" fill="#5697d7" fill-opacity="1"></use><g><use xlink:href="#d2iBEKuil" opacity="1" fill-opacity="0" stroke="#000000" stroke-width="1" stroke-opacity="0"></use></g></g></g></g></svg>