<svg xmlns="http://www.w3.org/2000/svg" viewBox="0 0 63.65 90.12"><title>icon-c-Recurso 1</title><g id="Capa_2" data-name="Capa 2"><g id="Capa_1-2" data-name="Capa 1"><path d="M31.83,4A27.85,27.85,0,0,1,59.65,31.83C59.65,49.41,39.53,74.9,31.82,84A206.82,206.82,0,0,1,19.16,67.43C9.24,52.91,4,40.6,4,31.83A27.86,27.86,0,0,1,31.83,4h0m0,45.78a17.95,17.95,0,1,0-17.95-18,18,18,0,0,0,17.95,18M31.83,0h0A31.83,31.83,0,0,0,0,31.83H0C0,55.29,31.83,90.12,31.83,90.12S63.65,55.29,63.65,31.83A31.83,31.83,0,0,0,31.83,0Zm0,45.78a13.95,13.95,0,1,1,13.94-14,13.94,13.94,0,0,1-13.94,14Z"/></g></g></svg>