<svg xmlns="http://www.w3.org/2000/svg" viewBox="0 0 80 82"><defs><style>.cls-1{fill:#5697d7;}</style></defs><title>search-Recurso 2</title><g id="Capa_2" data-name="Capa 2"><g id="Capa_1-2" data-name="Capa 1"><path class="cls-1" d="M78.7,74.6,57.1,53.1A31.42,31.42,0,0,0,65.2,32c0-17.6-14.6-32-32.6-32S0,14.4,0,32,14.6,64,32.6,64a33.45,33.45,0,0,0,17.7-5.1L72.5,80.7A4.39,4.39,0,0,0,75.6,82a4.57,4.57,0,0,0,3.1-1.3,4,4,0,0,0,1.3-3A4.77,4.77,0,0,0,78.7,74.6ZM56.6,32A23.8,23.8,0,0,1,9,32a23.8,23.8,0,0,1,47.6,0Z"/></g></g></svg>