<svg xmlns="http://www.w3.org/2000/svg" xmlns:xlink="http://www.w3.org/1999/xlink" width="24.812" height="24.359" viewBox="0 0 24.812 24.359">
  <defs>
    <linearGradient id="linear-gradient" x1="0.5" x2="0.5" y2="1" gradientUnits="objectBoundingBox">
      <stop offset="0" stop-color="#3B3D42"/>
      <stop offset="1" stop-color="#A1A5AA"/>
    </linearGradient>
    <linearGradient id="linear-gradient-2" x1="0.5" x2="0.5" y2="1" gradientUnits="objectBoundingBox">
      <stop offset="0" stop-color="#d88d00"/>
      <stop offset="1" stop-color="#edc500"/>
    </linearGradient>
  </defs>
  <g id="Grupo_1358" data-name="Grupo 1358" transform="translate(0 0)">
    <path id="Trazado_3" data-name="Trazado 3" d="M469.029,770.272a.761.761,0,1,1,.76-.761.761.761,0,0,1-.76.761m-.76-7.612h.76a.761.761,0,0,1,0,1.522h-.253a.507.507,0,0,0-.506.507v.254a.76.76,0,1,1-1.519,0v-.761a1.52,1.52,0,0,1,1.519-1.522m-2.279,4.567a.761.761,0,0,1,0,1.522h-.253a.507.507,0,0,0-.506.507v.254a.76.76,0,1,1-1.519,0v-.761a1.52,1.52,0,0,1,1.519-1.522Zm-2.279-4.567h.76a.761.761,0,0,1,0,1.522h-.253a.507.507,0,0,0-.506.507v.254a.76.76,0,1,1-1.519,0v-.761a1.52,1.52,0,0,1,1.519-1.522m-2.279,4.567a.761.761,0,0,1,0,1.522h-.253a.507.507,0,0,0-.506.507v.254a.76.76,0,1,1-1.519,0v-.761a1.52,1.52,0,0,1,1.519-1.522Zm-2.279-4.567h.76a.761.761,0,0,1,0,1.522h-.253a.507.507,0,0,0-.506.507v.254a.76.76,0,1,1-1.519,0v-.761a1.52,1.52,0,0,1,1.519-1.522m-3.8,7.612a.761.761,0,0,1-.76-.761v-.761a1.52,1.52,0,0,1,1.519-1.522h.76a.761.761,0,0,1,0,1.522h-.253a.507.507,0,0,0-.506.507v.254a.761.761,0,0,1-.76.761m15.954,4.567H453.075a3.042,3.042,0,0,1-3.039-3.045V761.137a3.042,3.042,0,0,1,3.039-3.045h18.993a.761.761,0,0,0,.76-.761v-.761a1.52,1.52,0,0,0-1.519-1.522h-1.14a1.9,1.9,0,0,1-1.9-1.9v-.381a.76.76,0,1,0-1.519,0v.381a1.9,1.9,0,0,1-1.9,1.9h-5.318a1.9,1.9,0,0,1-1.9-1.9v-.381a.76.76,0,1,0-1.519,0v.381a1.9,1.9,0,0,1-1.9,1.9h-1.14a1.52,1.52,0,0,0-1.519,1.522.76.76,0,1,1-1.519,0,3.042,3.042,0,0,1,3.039-3.045h.76a.761.761,0,0,0,.76-.761,2.279,2.279,0,1,1,4.558,0,.761.761,0,0,0,.76.761h4.558a.761.761,0,0,0,.76-.761,2.279,2.279,0,1,1,4.558,0,.761.761,0,0,0,.76.761h.76a3.042,3.042,0,0,1,3.039,3.045v1.142a1.9,1.9,0,0,1-1.9,1.9H453.075a1.52,1.52,0,0,0-1.519,1.522v10.657a1.52,1.52,0,0,0,1.519,1.522h18.233a1.52,1.52,0,0,0,1.519-1.522v-6.851a.76.76,0,1,1,1.519,0v6.851a3.042,3.042,0,0,1-3.039,3.045" transform="translate(-450.036 -750.48)" fill-rule="evenodd" fill="url(#linear-gradient)"/>
    <path id="Trazado_4" data-name="Trazado 4" d="M510.49,777.033a1.267,1.267,0,0,1,1.2,1.665,1.227,1.227,0,0,1-.8.8,1.265,1.265,0,1,1-.4-2.464" transform="translate(-486.942 -767.038)" fill-rule="evenodd" fill="url(#linear-gradient-2)"/>
  </g>
</svg>