<svg xmlns="http://www.w3.org/2000/svg" xmlns:xlink="http://www.w3.org/1999/xlink" width="32" height="32" viewBox="0 0 32 32">
  <defs>
    <linearGradient id="linear-gradient" x1="0.5" x2="0.5" y2="1" gradientUnits="objectBoundingBox">
      <stop offset="0" stop-color="#005ca4"/>
      <stop offset="1" stop-color="#008cce"/>
    </linearGradient>
    <linearGradient id="linear-gradient-2" x1="0.5" x2="0.5" y2="1" gradientUnits="objectBoundingBox">
      <stop offset="0" stop-color="#d88d00"/>
      <stop offset="1" stop-color="#edc500"/>
    </linearGradient>
  </defs>
  <g id="Grupo_2425" data-name="Grupo 2425" transform="translate(-2081 -244)">
    <rect id="Rectángulo_2984" data-name="Rectángulo 2984" width="32" height="32" transform="translate(2081 244)" fill="none"/>
    <g id="Grupo_1447" data-name="Grupo 1447" transform="translate(2088 250)">
      <path id="Trazado_119" data-name="Trazado 119" d="M619.529,455.877l-.268.268-.005,0a1.263,1.263,0,0,1-1.76.022l-1.63-1.63a.632.632,0,1,1,.894-.894l1.376,1.375h0a.316.316,0,0,0,.447,0s.008,0,.012,0l.038-.038a1.263,1.263,0,0,0,0-1.787l-1.116-1.118a1.265,1.265,0,0,0-1.788,0l-1.45,1.451a2.52,2.52,0,0,1-1.763.717H602.88a1.58,1.58,0,0,0-1.58,1.58v12.007a1.58,1.58,0,0,0,1.58,1.58h12.007a1.581,1.581,0,0,0,1.58-1.58v-8.127a.316.316,0,0,0-.539-.223s0,0,0,0l-3.51,3.51a2.514,2.514,0,0,1-1.344.7,1.279,1.279,0,0,1-.292.037h-.1c-.038,0-.074,0-.113,0h-2.319a1.264,1.264,0,0,1-1.264-1.264v-2.319c0-.038,0-.075,0-.113v-.1a1.279,1.279,0,0,1,.037-.292,2.515,2.515,0,0,1,.7-1.344l1.343-1.342,0,0a.631.631,0,1,1,.855.925l-1.308,1.308a1.257,1.257,0,0,0-.359,1c0,.018-.005.035-.005.053v.948a1.264,1.264,0,0,0,1.264,1.264h.948c.018,0,.035,0,.052-.005a1.256,1.256,0,0,0,1-.359l4.06-4.06a1.226,1.226,0,0,1,.886-.315,1.264,1.264,0,0,1,1.264,1.264v9.163a2.527,2.527,0,0,1-2.528,2.528H602.564a2.528,2.528,0,0,1-2.528-2.528V455.511a2.529,2.529,0,0,1,2.528-2.528h9.953a1.255,1.255,0,0,0,.883-.361l1.438-1.438a2.528,2.528,0,0,1,3.575,0l1.118,1.118a2.528,2.528,0,0,1,0,3.575" transform="translate(-600.036 -450.445)" fill-rule="evenodd" fill="#ffff"/>
      <path id="Trazado_120" data-name="Trazado 120" d="M632.984,464.382a.948.948,0,1,1-.948.948.949.949,0,0,1,.948-.948" transform="translate(-621.925 -459.978)" fill-rule="evenodd" fill="#ffff"/>
    </g>
  </g>
</svg>
