<svg xmlns="http://www.w3.org/2000/svg" width="26.915" height="23.906" viewBox="0 0 26.915 23.906">
  <path id="Trazado_51" data-name="Trazado 51" d="M156.261,15.533a.832.832,0,0,1-1.068.081l-.021.021-.6-.6a4.209,4.209,0,0,1,0-5.955.842.842,0,0,1,1.192,1.19,2.527,2.527,0,0,0,0,3.574l.492.493h0l.1.1-.021.021a.829.829,0,0,1-.082,1.068m2.179-5.9a.842.842,0,1,1,1.19,0,.842.842,0,0,1-1.19,0m16.386,7.784-5.4,5.4a.842.842,0,1,1-1.191-1.192l4.807-4.806.6-.6a6.1,6.1,0,0,0,0-8.338,5.9,5.9,0,0,0-8.338,0l-.59.59a1.682,1.682,0,0,1-2.393,0h0l-.59-.59a5.9,5.9,0,0,0-8.336,0,6.043,6.043,0,0,0,0,8.338l4.8,4.8,5.918,5.918h0a.842.842,0,0,1-1.19,1.191l-4.764-4.764-5.956-5.956a7.726,7.726,0,0,1,0-10.719,7.58,7.58,0,0,1,10.72,0l.6.6.6-.6a7.58,7.58,0,0,1,10.72,0,7.829,7.829,0,0,1,0,10.719" transform="translate(-150.034 -4.481)" fill="#fff" fill-rule="evenodd"/>
</svg>
