<svg width="250" height="250" viewBox="0 0 250 250" fill="none" xmlns="http://www.w3.org/2000/svg">
<path fill-rule="evenodd" clip-rule="evenodd" d="M203.991 75.9235H218.945C222.375 75.9235 225.156 78.7044 225.156 82.1347C225.156 85.565 222.375 88.3459 218.945 88.3459H204.622C202.375 103.288 189.482 114.743 173.914 114.743C158.345 114.743 145.452 103.288 143.205 88.3459H26.3979C22.9676 88.3459 20.1868 85.565 20.1868 82.1347C20.1868 78.7044 22.9676 75.9235 26.3979 75.9235H143.836C147.284 62.5289 159.443 52.6316 173.914 52.6316C188.384 52.6316 200.544 62.5289 203.991 75.9235ZM15.528 82.1347C15.528 86.4226 12.0519 89.8987 7.76398 89.8987C3.47605 89.8987 0 86.4226 0 82.1347C0 77.8468 3.47605 74.3707 7.76398 74.3707C12.0519 74.3707 15.528 77.8468 15.528 82.1347Z" fill="white"/>
<path fill-rule="evenodd" clip-rule="evenodd" d="M46.0089 159.774H31.0555C27.6251 159.774 24.8443 162.555 24.8443 165.986C24.8443 169.416 27.6251 172.197 31.0555 172.197H45.3776C47.6252 187.139 60.518 198.594 76.0864 198.594C91.6549 198.594 104.548 187.139 106.795 172.197H223.602C227.032 172.197 229.813 169.416 229.813 165.986C229.813 162.555 227.032 159.774 223.602 159.774H106.164C102.716 146.38 90.5572 136.483 76.0864 136.483C61.6156 136.483 49.4565 146.38 46.0089 159.774ZM234.472 165.986C234.472 170.274 237.948 173.75 242.236 173.75C246.524 173.75 250 170.274 250 165.986C250 161.698 246.524 158.222 242.236 158.222C237.948 158.222 234.472 161.698 234.472 165.986Z" fill="white"/>
</svg>
