<svg xmlns="http://www.w3.org/2000/svg" xmlns:xlink="http://www.w3.org/1999/xlink" width="18.433" height="14.977" viewBox="0 0 18.433 14.977">
  <defs>
    <linearGradient id="linear-gradient" x1="0.5" x2="0.5" y2="1" gradientUnits="objectBoundingBox">
      <stop offset="0" stop-color="#d88d00"/>
      <stop offset="1" stop-color="#edc500"/>
    </linearGradient>
  </defs>
  <g id="Grupo_1847" data-name="Grupo 1847" transform="translate(0 0)">
    <path id="Trazado_45" data-name="Trazado 45" d="M616.165,1066.577h-.576a.576.576,0,0,1,0-1.152h.576a1.152,1.152,0,0,0,1.152-1.152v-1.728a.5.5,0,0,0-.021-.135c-.006-.018-.013-.036-.021-.054a.524.524,0,0,0-.026-.058,1.209,1.209,0,0,0-.853-.6,5.8,5.8,0,0,0-1.959-.309,5.711,5.711,0,0,0-1.914.305,1.31,1.31,0,0,0-.654.3l0,0a.529.529,0,1,1-.609-.859,4.163,4.163,0,0,1,1.152-.581,2.869,2.869,0,0,1-.842-1.8c-.008-.077-.011-.156-.011-.235v-1.728a2.3,2.3,0,0,1,2.3-2.3h1.152a2.3,2.3,0,0,1,2.3,2.3v1.728a.576.576,0,1,1-1.152,0v-1.728a1.152,1.152,0,0,0-1.152-1.152h-1.152a1.152,1.152,0,0,0-1.152,1.152v1.728a1.728,1.728,0,0,0,1.728,1.728c2.227,0,4.032,1.032,4.032,2.3v1.728a2.3,2.3,0,0,1-2.3,2.3m-6.053-4.96a.574.574,0,1,1-1.071-.411h0a2.282,2.282,0,0,0,.214-.965,2.33,2.33,0,0,0-.034-.377,1.536,1.536,0,0,0,.034-.322V1057.2a1.55,1.55,0,0,0-1.536-1.564H606.18a1.549,1.549,0,0,0-1.536,1.564v2.345a1.613,1.613,0,0,0,.033.322,2.358,2.358,0,0,0-.033.377,2.3,2.3,0,0,0,2.3,2.3c3.817,0,6.912,1.419,6.912,3.168v1.44a2.3,2.3,0,0,1-2.3,2.3H602.34a2.3,2.3,0,0,1-2.3-2.3v-1.44a2.26,2.26,0,0,1,1.188-1.775.524.524,0,0,1,.326-.116.533.533,0,0,1,.289.982l0,.005a1.2,1.2,0,0,0-.655.9v1.44a1.152,1.152,0,0,0,1.152,1.152h9.217a1.152,1.152,0,0,0,1.152-1.152v-1.44c0-1.114-2.579-2.016-5.76-2.016a3.441,3.441,0,0,1-2.383-.957,3.477,3.477,0,0,1-.624-.8l-.007-.01c-.051-.091-.1-.187-.141-.282a.252.252,0,0,1-.014-.029c-.039-.091-.074-.183-.106-.277-.006-.018-.013-.034-.018-.051-.028-.088-.051-.178-.071-.268-.006-.024-.014-.048-.019-.072-.018-.088-.031-.178-.042-.268,0-.028-.01-.055-.013-.083a3.462,3.462,0,0,1-.019-.36c0-.063.006-.126.009-.188s-.009-.13-.009-.2v-2.688a2.641,2.641,0,0,1,2.592-2.688h1.728a2.642,2.642,0,0,1,2.592,2.688v2.688c0,.066,0,.13-.01.2s.01.125.01.188a3.417,3.417,0,0,1-.293,1.377" transform="translate(-600.036 -1054.48)" fill="#fff" fill-rule="evenodd"/>
    <path id="Trazado_46" data-name="Trazado 46" d="M608.9,1081.48a.867.867,0,0,1,.821,1.139.84.84,0,0,1-.547.547.865.865,0,1,1-.274-1.686" transform="translate(-605.732 -1073.703)" fill-rule="evenodd" fill="url(#linear-gradient)"/>
  </g>
</svg>
