<svg xmlns="http://www.w3.org/2000/svg" xmlns:xlink="http://www.w3.org/1999/xlink" width="21.635" height="21.635" viewBox="0 0 21.635 21.635">
  <defs>
    <linearGradient id="linear-gradient" x1="0.5" x2="0.5" y2="1" gradientUnits="objectBoundingBox">
      <stop offset="0" stop-color="#d88d00"/>
      <stop offset="1" stop-color="#edc500"/>
    </linearGradient>
  </defs>
  <g id="Grupo_1834" data-name="Grupo 1834" transform="translate(-1802 -314)">
    <g id="Grupo_1420" data-name="Grupo 1420" transform="translate(1804.704 316.704)">
      <path id="Trazado_3" data-name="Trazado 3" d="M462.2,763.127a.486.486,0,1,1,.486-.487.487.487,0,0,1-.486.487m-.486-4.864h.486a.486.486,0,1,1,0,.973h-.162a.324.324,0,0,0-.324.324v.162a.486.486,0,0,1-.973,0v-.486a.973.973,0,0,1,.973-.973m-1.459,2.918a.486.486,0,0,1,0,.973h-.162a.324.324,0,0,0-.324.324v.162a.486.486,0,1,1-.973,0v-.486a.973.973,0,0,1,.973-.973Zm-1.459-2.918h.486a.486.486,0,1,1,0,.973h-.162a.324.324,0,0,0-.324.324v.162a.486.486,0,0,1-.973,0v-.486a.973.973,0,0,1,.973-.973m-1.459,2.918a.486.486,0,1,1,0,.973h-.162a.324.324,0,0,0-.324.324v.162a.486.486,0,1,1-.973,0v-.486a.973.973,0,0,1,.973-.973Zm-1.459-2.918h.486a.486.486,0,1,1,0,.973H456.2a.324.324,0,0,0-.324.324v.162a.486.486,0,0,1-.973,0v-.486a.973.973,0,0,1,.973-.973m-2.432,4.864a.487.487,0,0,1-.486-.487v-.486a.973.973,0,0,1,.973-.973h.486a.486.486,0,1,1,0,.973h-.162a.324.324,0,0,0-.324.324v.162a.487.487,0,0,1-.486.487m10.215,2.918H451.982a1.946,1.946,0,0,1-1.946-1.946v-6.81a1.946,1.946,0,0,1,1.946-1.946h12.16a.487.487,0,0,0,.486-.486v-.486a.973.973,0,0,0-.973-.973h-.73a1.216,1.216,0,0,1-1.216-1.216v-.243a.486.486,0,0,0-.973,0v.243a1.216,1.216,0,0,1-1.216,1.216h-3.4a1.217,1.217,0,0,1-1.216-1.216v-.243a.486.486,0,0,0-.973,0v.243a1.217,1.217,0,0,1-1.216,1.216h-.73a.973.973,0,0,0-.973.973.486.486,0,1,1-.973,0,1.946,1.946,0,0,1,1.946-1.946h.486a.487.487,0,0,0,.486-.486,1.459,1.459,0,0,1,2.918,0,.487.487,0,0,0,.486.486h2.919a.487.487,0,0,0,.486-.486,1.459,1.459,0,0,1,2.918,0,.487.487,0,0,0,.486.486h.486a1.946,1.946,0,0,1,1.946,1.946v.73a1.216,1.216,0,0,1-1.216,1.216h-12.4a.973.973,0,0,0-.973.973v6.81a.973.973,0,0,0,.973.973h11.674a.973.973,0,0,0,.973-.973v-4.378a.486.486,0,0,1,.973,0V764.1a1.946,1.946,0,0,1-1.946,1.946" transform="translate(-450.036 -750.48)" fill="#fff" fill-rule="evenodd"/>
      <path id="Trazado_4" data-name="Trazado 4" d="M509.957,777.033a.732.732,0,0,1,.694.962.709.709,0,0,1-.462.462.73.73,0,1,1-.232-1.423" transform="translate(-494.831 -770.575)" fill-rule="evenodd" fill="url(#linear-gradient)"/>
    </g>
    <rect id="Rectángulo_2975" data-name="Rectángulo 2975" width="21.635" height="21.635" transform="translate(1802 314)" fill="none"/>
  </g>
</svg>
