<svg xmlns="http://www.w3.org/2000/svg" xmlns:xlink="http://www.w3.org/1999/xlink" width="15.389" height="15.397" viewBox="0 0 15.389 15.397">
  <defs>
    <linearGradient id="linear-gradient" x1="0.5" x2="0.5" y2="1" gradientUnits="objectBoundingBox">
      <stop offset="0" stop-color="#d88d00"/>
      <stop offset="1" stop-color="#edc500"/>
    </linearGradient>
  </defs>
  <g id="Grupo_1832" data-name="Grupo 1832" transform="translate(-0.001 15.397) rotate(-90)">
    <path id="Trazado_135" data-name="Trazado 135" d="M1814.854,454.763l-1.364,1.362a1.857,1.857,0,0,1-.259.212c-.036.026-.073.049-.111.071a1.735,1.735,0,0,1-.156.081,1.978,1.978,0,0,1-.385.14,1.92,1.92,0,0,1-1.816-.5.311.311,0,0,0-.184-.1,1.924,1.924,0,0,0-2.372.274l-1.875,1.874a.482.482,0,1,1-.682-.681l1.875-1.874a2.891,2.891,0,0,1,3.943-.133l.011-.01a.961.961,0,0,0,1.328-.027l1.364-1.363a.964.964,0,0,0,0-1.363l-.622-.621h0l-.059-.059a.267.267,0,0,0-.089-.061c-1.53-1.232-5.058.1-8.431,3.468s-4.691,6.87-3.482,8.409a.362.362,0,0,0,.074.107l.059.059h0l.621.621a.964.964,0,0,0,1.364,0l1.363-1.362a.961.961,0,0,0,.028-1.329.087.087,0,0,0,.008-.01.286.286,0,0,1-.036-.024.482.482,0,0,1,.682-.681,1.918,1.918,0,0,1,.5,1.815,2.013,2.013,0,0,1-.14.385c-.026.052-.052.1-.082.155s-.046.075-.071.111a1.87,1.87,0,0,1-.212.26l-1.363,1.362a1.928,1.928,0,0,1-2.727,0l-.852-.851c-1.694-1.693-.169-5.962,3.579-9.708s8.019-5.271,9.713-3.577l.852.852a1.926,1.926,0,0,1,0,2.725" transform="translate(-1800.021 -450.497)" fill="#fff" fill-rule="evenodd"/>
    <path id="Trazado_136" data-name="Trazado 136" d="M1818.317,483.641a.722.722,0,1,1-.721.722.722.722,0,0,1,.721-.722" transform="translate(-1813.369 -475.669)" fill-rule="evenodd" fill="url(#linear-gradient)"/>
  </g>
</svg>
