<svg xmlns="http://www.w3.org/2000/svg" xmlns:xlink="http://www.w3.org/1999/xlink" width="20.837" height="17.588" viewBox="0 0 20.837 17.588">
  <defs>
    <linearGradient id="linear-gradient" x1="0.5" x2="0.5" y2="1" gradientUnits="objectBoundingBox">
      <stop offset="0" stop-color="#3b3d42"/>
      <stop offset="1" stop-color="#a1a5aa"/>
    </linearGradient>
    <linearGradient id="linear-gradient-2" x1="0.5" x2="0.5" y2="1" gradientUnits="objectBoundingBox">
      <stop offset="0" stop-color="#d88d00"/>
      <stop offset="1" stop-color="#edc500"/>
    </linearGradient>
  </defs>
  <g id="Grupo_3613" data-name="Grupo 3613" transform="translate(-890.917 -7.949)">
    <path id="Trazado_23" data-name="Trazado 23" d="M15.57,14.062h-.794l-.282-.272a6.546,6.546,0,1,0-.7.7l.272.282v.794l5.028,5.018,1.5-1.5Zm-6.034,0a4.525,4.525,0,1,1,4.525-4.525A4.519,4.519,0,0,1,9.537,14.062Z" transform="translate(891.166 4.949)" fill="url(#linear-gradient)"/>
    <path id="Trazado_3506" data-name="Trazado 3506" d="M469.118,357.48a1.231,1.231,0,1,1-1.231,1.231,1.232,1.232,0,0,1,1.231-1.231" transform="translate(423.03 -348.521)" fill-rule="evenodd" fill="url(#linear-gradient-2)"/>
  </g>
</svg>
