<svg xmlns="http://www.w3.org/2000/svg" xmlns:xlink="http://www.w3.org/1999/xlink" width="32" height="32" viewBox="0 0 32 32">
  <defs>
    <clipPath id="clip-path">
      <rect id="Rect치ngulo_2977" data-name="Rect치ngulo 2977" width="24.156" height="24.156" fill="#6a6d71"/>
    </clipPath>
    <linearGradient id="linear-gradient" x1="0.5" x2="0.5" y2="1" gradientUnits="objectBoundingBox">
      <stop offset="0" stop-color="#d88d00"/>
      <stop offset="1" stop-color="#edc500"/>
    </linearGradient>
  </defs>
  <g id="Grupo_1644" data-name="Grupo 1644" transform="translate(-1905 -316)">
    <rect id="Rect치ngulo_2979" data-name="Rect치ngulo 2979" width="32" height="32" transform="translate(1905 316)" fill="none"/>
    <g id="Grupo_1427" data-name="Grupo 1427" transform="translate(1909 320)">
      <g id="Grupo_1426" data-name="Grupo 1426" clip-path="url(#clip-path)">
        <path id="Trazado_1846" data-name="Trazado 1846" d="M21.083,4.041a.637.637,0,0,0-.1-.112,12.058,12.058,0,0,0-17.811,0,.641.641,0,0,0-.1.112q-.317.355-.6.734a.468.468,0,0,0,.139.687l.321.185a.462.462,0,0,0,.6-.114l0-.006A.466.466,0,0,1,4.1,5.4a14.955,14.955,0,0,0,1.911.716.462.462,0,0,1,.312.557,21.008,21.008,0,0,0-.631,4.308.467.467,0,0,1-.465.449H1.834a.469.469,0,0,1-.465-.521,10.7,10.7,0,0,1,.6-2.542A.464.464,0,0,0,1.762,7.8l-.325-.188a.468.468,0,0,0-.672.241A12.038,12.038,0,0,0,3.072,20.115a.646.646,0,0,0,.1.111,12.058,12.058,0,0,0,17.82-.007.628.628,0,0,0,.068-.076,12.05,12.05,0,0,0,.024-16.1M4.7,4.239A10.782,10.782,0,0,1,8.593,1.885,10.872,10.872,0,0,0,6.849,5,14.1,14.1,0,0,1,4.7,4.239M1.325,12.73H5.672a20.94,20.94,0,0,0,.766,5.19,14.922,14.922,0,0,0-2.677,1,10.723,10.723,0,0,1-2.436-6.19M4.7,19.917a14.1,14.1,0,0,1,2.151-.761A10.867,10.867,0,0,0,8.593,22.27,10.782,10.782,0,0,1,4.7,19.917m6.728,2.84c-1.3-.369-2.473-1.82-3.286-3.9a20.809,20.809,0,0,1,3.286-.354Zm0-5.558a22.013,22.013,0,0,0-3.707.417,19.715,19.715,0,0,1-.741-4.885h4.448Zm0-5.772H6.977a19.717,19.717,0,0,1,.741-4.885,22.014,22.014,0,0,0,3.707.417Zm0-5.773A20.809,20.809,0,0,1,8.14,5.3c.813-2.08,1.981-3.531,3.286-3.9Zm11.4,5.773H18.483a20.94,20.94,0,0,0-.766-5.19,14.922,14.922,0,0,0,2.677-1,10.723,10.723,0,0,1,2.436,6.19M19.457,4.239A14.1,14.1,0,0,1,17.306,5a10.867,10.867,0,0,0-1.744-3.114,10.784,10.784,0,0,1,3.895,2.353M12.924,1.462c1.226.452,2.319,1.86,3.091,3.836a20.806,20.806,0,0,1-3.286.354V1.6a.147.147,0,0,1,.195-.141m-.195,5.5a22.019,22.019,0,0,0,3.707-.417,19.737,19.737,0,0,1,.741,4.885H12.73Zm0,5.772h4.448a19.737,19.737,0,0,1-.741,4.885A22.021,22.021,0,0,0,12.73,17.2Zm0,10.027V18.5a20.809,20.809,0,0,1,3.286.354c-.813,2.08-1.981,3.531-3.286,3.9m2.833-.486a10.867,10.867,0,0,0,1.744-3.114,14.127,14.127,0,0,1,2.151.761,10.784,10.784,0,0,1-3.895,2.353m4.832-3.351a14.922,14.922,0,0,0-2.677-1,20.94,20.94,0,0,0,.766-5.19H22.83a10.723,10.723,0,0,1-2.436,6.19" transform="translate(0 0)" fill="#6a6d71"/>
      </g>
      <path id="Trazado_1848" data-name="Trazado 1848" d="M469.118,357.48a1.231,1.231,0,1,1-1.231,1.231,1.232,1.232,0,0,1,1.231-1.231" transform="translate(-467.012 -352.522)" fill-rule="evenodd" fill="url(#linear-gradient)"/>
    </g>
  </g>
</svg>
