<svg id="icon_navigation_expand_more_24px" data-name="icon/navigation/expand_more_24px" xmlns="http://www.w3.org/2000/svg" width="32" height="32" viewBox="0 0 32 32">
  <rect id="Boundary" width="32" height="32" fill="none"/>
  <g id="Grupo_1428" data-name="Grupo 1428" transform="translate(6 10.001)">
    <g id="Grupo_1417" data-name="Grupo 1417" transform="translate(0 2.288)">
      <path id="Trazado_1893" data-name="Trazado 1893" d="M1006.623,705.634a1.337,1.337,0,0,1-.933-.379l-7.1-6.874a1.391,1.391,0,0,1-.047-1.944,1.337,1.337,0,0,1,1.913-.047l6.169,5.971,6.169-5.971a1.337,1.337,0,0,1,1.913.047,1.391,1.391,0,0,1-.047,1.944l-7.1,6.874A1.337,1.337,0,0,1,1006.623,705.634Z" transform="translate(-998.168 -696.009)" fill="#0085ca"/>
    </g>
    <path id="Trazado_1847" data-name="Trazado 1847" d="M469.031,357.48a1.144,1.144,0,1,1-1.144,1.144,1.145,1.145,0,0,1,1.144-1.144" transform="translate(-450.976 -357.48)" fill="#0085ca" fill-rule="evenodd"/>
  </g>
</svg>
