<svg xmlns="http://www.w3.org/2000/svg" xmlns:xlink="http://www.w3.org/1999/xlink" width="20" height="20" viewBox="0 0 20 20">
  <defs>
    <linearGradient id="linear-gradient" x1="0.5" x2="0.5" y2="1" gradientUnits="objectBoundingBox">
      <stop offset="0" stop-color="#d88d00"/>
      <stop offset="1" stop-color="#edc500"/>
    </linearGradient>
  </defs>
  <g id="icon_navigation_expand_more_24px" data-name="icon/navigation/expand_more_24px" transform="translate(0 0)">
    <rect id="Boundary" width="20" height="20" transform="translate(0 0)" fill="none"/>
    <path id="Trazado_1847" data-name="Trazado 1847" d="M469.279,357.48a1.392,1.392,0,1,0,1.392,1.392,1.393,1.393,0,0,0-1.392-1.392" transform="translate(-451.85 -356.855)" fill-rule="evenodd" fill="url(#linear-gradient)"/>
    <path id="Unión_5" data-name="Unión 5" d="M3.484,10.31.31,7.123a1.064,1.064,0,0,1,0-1.5,1.052,1.052,0,0,1,1.494,0L4.231,8.059,11.945.312a1.052,1.052,0,0,1,1.494,0,1.064,1.064,0,0,1,0,1.5l-8.46,8.5a1.038,1.038,0,0,1-1.494,0Z" transform="translate(2.288 3.124)" fill="#fff"/>
  </g>
</svg>
