<svg width="250" height="250" viewBox="0 0 250 250" fill="none" xmlns="http://www.w3.org/2000/svg">
<path fill-rule="evenodd" clip-rule="evenodd" d="M192.647 31.2977L127.941 63.6507V184.519C127.941 193.068 119.111 198.763 111.323 195.236L39.2647 162.606C35.0564 160.7 32.3529 156.508 32.3529 151.889V21.8446C32.3529 13.0369 41.6755 7.35252 49.5054 11.3861L93.7467 34.1771C98.0787 36.4087 99.7815 41.7297 97.5498 46.0617C95.3181 50.3938 89.9972 52.0965 85.6651 49.8648L50 31.4919V148.095L110.294 175.398V60.0152C110.294 55.559 112.812 51.4853 116.797 49.4925L193.268 11.2572C201.09 7.34605 210.294 13.0341 210.294 21.7799V152.06C210.294 156.322 207.989 160.251 204.268 162.33L155.775 189.429C151.521 191.806 146.145 190.285 143.768 186.031C141.391 181.777 142.912 176.402 147.166 174.024L192.647 148.609V31.2977ZM195.655 146.928L195.66 146.925L198.529 152.06L195.66 146.925C195.658 146.926 195.656 146.927 195.655 146.928ZM8.82353 52.3151C13.6966 52.3151 17.6471 56.2655 17.6471 61.1386V175.939L120.611 220.647L225 175.909V97.9033C225 93.0302 228.95 89.0798 233.824 89.0798C238.697 89.0798 242.647 93.0302 242.647 97.9033V179.787C242.647 184.494 239.842 188.747 235.517 190.601L125.23 237.867C122.253 239.143 118.881 239.134 115.91 237.844L119.424 229.751L115.91 237.844L7.07899 190.589C2.7808 188.722 0 184.483 0 179.797V61.1386C0 56.2655 3.95043 52.3151 8.82353 52.3151ZM228.559 174.384L228.565 174.381L230.882 179.787L228.565 174.381C228.563 174.382 228.561 174.383 228.559 174.384Z" fill="#0361A8"/>
<circle cx="235.294" cy="64.0798" r="14.7059" fill="#FCC01A"/>
</svg>
