<svg xmlns="http://www.w3.org/2000/svg" xmlns:xlink="http://www.w3.org/1999/xlink" width="21.475" height="21.475" viewBox="0 0 21.475 21.475">
  <defs>
    <linearGradient id="linear-gradient" x1="0.5" x2="0.5" y2="1" gradientUnits="objectBoundingBox">
      <stop offset="0" stop-color="#891b1f"/>
      <stop offset="1" stop-color="#ae003f"/>
    </linearGradient>
    <linearGradient id="linear-gradient-2" x1="0.5" x2="0.5" y2="1" gradientUnits="objectBoundingBox">
      <stop offset="0" stop-color="#d88d00"/>
      <stop offset="1" stop-color="#edc500"/>
    </linearGradient>
  </defs>
  <g id="Grupo_1381" data-name="Grupo 1381" transform="translate(0 0.001)">
    <path id="Trazado_201" data-name="Trazado 201" d="M1810.774,921.955a10.729,10.729,0,0,1-9.4-15.913,2.682,2.682,0,1,1,4.738,2.507l.008,0a5.365,5.365,0,1,0,9.663,4.593l.034-.093c.056-.152.1-.307.147-.466l.037-.144c.035-.149.062-.3.084-.454.008-.053.018-.1.024-.157a5.282,5.282,0,0,0,.038-.614,5.367,5.367,0,0,0-.043-.65.093.093,0,0,1,0-.016h0a5.317,5.317,0,0,0-.7-2.049,1.005,1.005,0,0,0-1.942.366v1.007a2.663,2.663,0,0,1-.365,1.347.176.176,0,0,1-.015.024,2.69,2.69,0,0,1-.465.58l-.036.034a2.924,2.924,0,0,1-.281.225l0,0a2.678,2.678,0,0,1-.311.182l-.065.03a2.423,2.423,0,0,1-.323.13l-.012.006a2.873,2.873,0,0,1-.35.082l-.086.013a2.669,2.669,0,0,1-3.055-2.656v-6.711a2.684,2.684,0,1,1,5.369,0v.671a.671.671,0,1,1-1.342,0v-.671a1.342,1.342,0,1,0-2.684,0v6.711a1.342,1.342,0,1,0,2.684,0v-1.007a2.365,2.365,0,0,1,.043-.42c.008-.044.018-.084.028-.127a2.4,2.4,0,0,1,.087-.278c.016-.043.029-.086.048-.128a2.417,2.417,0,0,1,.173-.319c.036-.057.079-.107.121-.161s.071-.09.11-.133c.054-.059.109-.115.168-.169.027-.023.054-.045.082-.067a2.365,2.365,0,0,1,.483-.312,2.324,2.324,0,0,1,1.007-.235,2.348,2.348,0,0,1,2.152,1.412l0,0a6.71,6.71,0,1,1-12.557,3.288c0-.212.013-.422.034-.63,0-.039.007-.079.011-.119.025-.209.055-.415.1-.617a6.7,6.7,0,0,1,.748-1.964l-.011-.007a1.32,1.32,0,0,0,.19-.679,1.341,1.341,0,0,0-2.585-.5,9.367,9.367,0,0,0-1.09,3.313c0,.03-.005.06-.01.091-.019.167-.038.333-.049.5-.014.2-.02.407-.02.613a9.391,9.391,0,0,0,18.753.746c.022-.246.038-.495.038-.746,0-.232-.01-.46-.027-.687-.006-.077-.016-.152-.022-.228-.015-.15-.031-.3-.053-.445-.014-.089-.029-.179-.045-.267-.023-.132-.049-.262-.077-.392-.021-.093-.042-.186-.065-.277-.031-.124-.067-.248-.1-.371-.027-.09-.052-.179-.081-.268-.046-.136-.1-.271-.148-.405-.036-.094-.071-.188-.111-.281-.07-.167-.144-.332-.223-.495-.039-.078-.081-.154-.122-.23s-.087-.173-.134-.257l.019-.011a.664.664,0,0,1-.151-.418.67.67,0,0,1,1.3-.228l0,0a10.735,10.735,0,0,1-9.357,16" transform="translate(-1800.036 -900.481)" fill-rule="evenodd" fill="url(#linear-gradient)"/>
    <path id="Trazado_202" data-name="Trazado 202" d="M1848.3,911.48a1.263,1.263,0,1,1-1.263,1.263,1.264,1.264,0,0,1,1.263-1.263" transform="translate(-1831.681 -907.887)" fill-rule="evenodd" fill="url(#linear-gradient-2)"/>
  </g>
</svg>
