<svg xmlns="http://www.w3.org/2000/svg" xmlns:xlink="http://www.w3.org/1999/xlink" width="27.373" height="23.583" viewBox="0 0 27.373 23.583">
  <defs>
    <linearGradient id="linear-gradient" x1="0.5" x2="0.5" y2="1" gradientUnits="objectBoundingBox">
      <stop offset="0" stop-color="#005ca4"/>
      <stop offset="1" stop-color="#008cce"/>
    </linearGradient>
    <linearGradient id="linear-gradient-2" x1="0.5" x2="0.5" y2="1" gradientUnits="objectBoundingBox">
      <stop offset="0" stop-color="#d88d00"/>
      <stop offset="1" stop-color="#edc500"/>
    </linearGradient>
  </defs>
  <g id="Grupo_1315" data-name="Grupo 1315" transform="translate(0 0)">
    <path id="Trazado_93" data-name="Trazado 93" d="M322.776,312.9h-3.369a.842.842,0,0,1,0-1.684h3.369a.842.842,0,1,1,0,1.684m0,3.369h-3.369a.842.842,0,1,1,0-1.684h3.369a.842.842,0,1,1,0,1.684m-8.422,5.053h8.422a.842.842,0,1,1,0,1.684h-8.422a.842.842,0,1,1,0-1.684m0-3.369h8.422a.842.842,0,1,1,0,1.684h-8.422a.842.842,0,1,1,0-1.684m-7.58-6.317a2.106,2.106,0,0,1,2.106-2.106h5.9a2.106,2.106,0,0,1,2.106,2.106v3.79a.842.842,0,0,1-1.684,0V312.06a.843.843,0,0,0-.842-.842H309.3a.843.843,0,0,0-.842.842v1.684a.843.843,0,0,0,.842.842h3.369a.842.842,0,0,1,0,1.684h-3.79a2.106,2.106,0,0,1-2.106-2.106Zm.842,9.686h3.369a.842.842,0,0,1,0,1.684h-3.369a.842.842,0,0,1,0-1.684m0-3.369h3.369a.842.842,0,0,1,0,1.684h-3.369a.842.842,0,1,1,0-1.684m16,10.107H305.089a5.054,5.054,0,0,1-5.053-5.053v-5.9a.842.842,0,1,1,1.684,0v5.9a3.369,3.369,0,0,0,3.369,3.369H323.2a2.106,2.106,0,0,0,2.106-2.106v-16a2.106,2.106,0,0,0-2.106-2.106h-16a2.106,2.106,0,0,0-2.106,2.106v13.9a.842.842,0,0,1-1.684,0V307.849a3.37,3.37,0,0,1,3.369-3.369h16.845a3.37,3.37,0,0,1,3.369,3.369v16.845a3.369,3.369,0,0,1-3.369,3.369" transform="translate(-299.615 -304.48)" fill-rule="evenodd" fill="url(#linear-gradient)"/>
    <path id="Trazado_94" data-name="Trazado 94" d="M300.3,323.48a1.263,1.263,0,1,1-1.263,1.263,1.264,1.264,0,0,1,1.263-1.263" transform="translate(-299.036 -315.478)" fill-rule="evenodd" fill="url(#linear-gradient-2)"/>
  </g>
</svg>
