<svg xmlns="http://www.w3.org/2000/svg" xmlns:xlink="http://www.w3.org/1999/xlink" width="23.636" height="21.861" viewBox="0 0 23.636 21.861">
  <defs>
    <linearGradient id="linear-gradient" x1="0.5" x2="0.5" y2="1" gradientUnits="objectBoundingBox">
      <stop offset="0" stop-color="#3b3d42"/>
      <stop offset="1" stop-color="#a1a5aa"/>
    </linearGradient>
  </defs>
  <g id="Grupo_1345" data-name="Grupo 1345" transform="translate(-0.047)">
    <path id="Trazado_141" data-name="Trazado 141" d="M600.754,617.969a.724.724,0,0,0,.718-.729V605.581a.724.724,0,0,1,.718-.729h1.436a.724.724,0,0,1,.718.729V620.52a1.809,1.809,0,0,0,1.795,1.822h.718a1.809,1.809,0,0,0,1.795-1.822v-7.651a.724.724,0,0,1,.718-.729H610.8a.724.724,0,0,1,.718.729v7.651a1.809,1.809,0,0,0,1.795,1.822h.718a1.809,1.809,0,0,0,1.795-1.822v-4.737a.724.724,0,0,1,.718-.729h1.436a.724.724,0,0,1,.718.729v5.1a1.446,1.446,0,0,0,1.436,1.457,2.893,2.893,0,0,0,2.871-2.915V601.209a.718.718,0,1,0-1.436,0v18.218c0,.805-.553,1.457-1.077,1.457a.361.361,0,0,1-.359-.364v-5.1a1.809,1.809,0,0,0-1.795-1.822h-2.154a1.809,1.809,0,0,0-1.795,1.822v4.737a.718.718,0,1,1-1.436,0V612.5a1.809,1.809,0,0,0-1.795-1.822h-2.154a1.809,1.809,0,0,0-1.795,1.822v7.651a.718.718,0,1,1-1.436,0V605.217a1.809,1.809,0,0,0-1.795-1.822h-2.154a1.809,1.809,0,0,0-1.795,1.822V617.24a.724.724,0,0,0,.718.729" transform="translate(-599.324 -600.48)" fill-rule="evenodd" fill="url(#linear-gradient)"/>
    <path id="Trazado_142" data-name="Trazado 142" d="M660.327,651.48a1.291,1.291,0,1,0,1.291,1.291,1.292,1.292,0,0,0-1.291-1.291" transform="translate(-658.989 -633.201)" fill-rule="evenodd" fill="url(#linear-gradient)"/>
  </g>
</svg>
