<svg xmlns="http://www.w3.org/2000/svg" xmlns:xlink="http://www.w3.org/1999/xlink" width="19.062" height="19.042" viewBox="0 0 19.062 19.042">
  <defs>
    <linearGradient id="linear-gradient" x1="0.5" x2="0.5" y2="1" gradientUnits="objectBoundingBox">
      <stop offset="0" stop-color="#3b3d42"/>
      <stop offset="1" stop-color="#a1a5aa"/>
    </linearGradient>
  </defs>
  <g id="Grupo_3477" data-name="Grupo 3477" transform="translate(0 0)">
    <path id="Trazado_85" data-name="Trazado 85" d="M1817.48,161.07h0a.3.3,0,0,0-.2.281.3.3,0,0,0,.083.2l.681.681a1.563,1.563,0,0,1-.47,2.539l-1.057.446a.445.445,0,0,0-.241.394.463.463,0,0,0,.029.158c.009.022.015.039.019.052l.338.816a2.085,2.085,0,0,1-3.852,1.6l-.317-.765h0a.518.518,0,0,0-.677-.271l-1,.424h0a1.765,1.765,0,0,1-2.432-1.633v-.619a.6.6,0,0,1,1.191,0v.6a.59.59,0,0,0,.8.556l.993-.417c.01,0,.018,0,.029-.009a1.681,1.681,0,0,1,2.2.9v0l.322.777a.894.894,0,1,0,1.651-.684l-.349-.842a1.634,1.634,0,0,1,.833-2.116l1.08-.455h0a.291.291,0,0,0,.1-.477l-1.4-1.4a1.053,1.053,0,0,1,.751-1.793h.137a1.191,1.191,0,0,0,1.191-1.191v-5.957a1.191,1.191,0,0,0-1.191-1.191h-14.3a1.191,1.191,0,0,0-1.191,1.191v5.957a1.191,1.191,0,0,0,1.191,1.191h5.361a.6.6,0,0,0,.6-.6V156.63a1.682,1.682,0,0,1,2.874-1.187c.006,0,.005,0,.009,0l3.177,3.177a.632.632,0,1,1-.894.894l-3.252-3.253s0,0,0,0a.415.415,0,0,0-.3-.128.419.419,0,0,0-.419.419v3.155a1.49,1.49,0,0,1-1.489,1.489h-5.659a2.383,2.383,0,0,1-2.383-2.383v-5.957a2.383,2.383,0,0,1,2.383-2.383h14.3a2.383,2.383,0,0,1,2.383,2.383v5.957a2.378,2.378,0,0,1-1.617,2.251" transform="translate(-1800.036 -150.48)" fill-rule="evenodd" fill="url(#linear-gradient)"/>
    <path id="Trazado_86" data-name="Trazado 86" d="M1828.3,189.48a1.263,1.263,0,1,1-1.263,1.263,1.264,1.264,0,0,1,1.263-1.263" transform="translate(-1819.339 -178.363)" fill-rule="evenodd" fill="url(#linear-gradient)"/>
  </g>
</svg>
