<svg xmlns="http://www.w3.org/2000/svg" width="21.133" height="17.164" viewBox="0 0 21.133 17.164">
  <path id="twitter-brands" d="M18.961,52.36c.013.188.013.375.013.563A12.239,12.239,0,0,1,6.651,65.246,12.24,12.24,0,0,1,0,63.3a8.961,8.961,0,0,0,1.046.054,8.674,8.674,0,0,0,5.377-1.851,4.339,4.339,0,0,1-4.05-3,5.463,5.463,0,0,0,.818.067,4.581,4.581,0,0,0,1.14-.147A4.332,4.332,0,0,1,.858,54.17v-.054a4.362,4.362,0,0,0,1.958.55,4.338,4.338,0,0,1-1.341-5.793,12.312,12.312,0,0,0,8.931,4.532,4.89,4.89,0,0,1-.107-.992,4.335,4.335,0,0,1,7.5-2.964A8.527,8.527,0,0,0,20.543,48.4a4.32,4.32,0,0,1-1.9,2.387,8.683,8.683,0,0,0,2.494-.67A9.311,9.311,0,0,1,18.961,52.36Z" transform="translate(0 -48.082)" fill="#fff"/>
</svg>
