<?xml version="1.0" encoding="utf-8"?>
<!-- Generator: Adobe Illustrator 22.1.0, SVG Export Plug-In . SVG Version: 6.00 Build 0)  -->
<svg version="1.1" id="Capa_1" xmlns="http://www.w3.org/2000/svg" xmlns:xlink="http://www.w3.org/1999/xlink" x="0px" y="0px"
	 viewBox="0 0 74.1 61.7" style="enable-background:new 0 0 74.1 61.7;" xml:space="preserve">
<style type="text/css">
	.st0{fill:#5697D7;}
</style>
<title>Cargo</title>
<path class="st0" d="M58.6,61.7h9.5c3.4,0,6.1-2.7,6.1-6.1V17.9c0-3.4-2.7-6.1-6.1-6.1H55.4V8.1c0-4.5-3.6-8.1-8.1-8.1H26.8
	c-4.5,0-8.1,3.6-8.1,8.1v3.8H6.1C2.8,11.9,0,14.6,0,18v37.7c0,3.4,2.7,6.1,6.1,6.1L58.6,61.7L58.6,61.7z M24.8,8.1c0-1.1,0.9-2,2-2
	h20.6c1.1,0,2,0.9,2,2v3.8H24.8V8.1z"/>
</svg>
