<?xml version="1.0" encoding="UTF-8" standalone="no"?>
<!DOCTYPE svg PUBLIC "-//W3C//DTD SVG 1.1//EN" "http://www.w3.org/Graphics/SVG/1.1/DTD/svg11.dtd">
<svg version="1.1" xmlns="http://www.w3.org/2000/svg" xmlns:xlink="http://www.w3.org/1999/xlink" preserveAspectRatio="xMidYMid meet" viewBox="0 0 640 640" width="640" height="640"><defs><path d="M386.37 4.84L389.74 5.18L393.07 5.65L396.35 6.26L399.59 6.99L402.78 7.85L405.92 8.83L409 9.92L412.03 11.14L415 12.46L417.91 13.9L420.75 15.45L423.52 17.1L426.23 18.85L428.86 20.71L431.42 22.66L433.89 24.7L436.29 26.84L438.6 29.07L440.83 31.38L442.97 33.78L445.01 36.26L446.97 38.81L448.82 41.44L450.57 44.15L452.22 46.92L453.77 49.76L455.21 52.67L456.54 55.64L457.75 58.67L458.85 61.75L459.82 64.89L460.68 68.08L461.41 71.32L462.02 74.6L462.49 77.93L462.84 81.3L463.04 84.7L463.11 88.14L463.11 124.7L523.54 124.7L525.1 124.73L526.63 124.82L528.15 124.98L529.66 125.19L531.14 125.47L532.6 125.8L534.04 126.18L535.46 126.63L536.85 127.12L538.22 127.67L539.56 128.27L540.87 128.92L542.15 129.62L543.41 130.36L544.63 131.15L545.81 131.99L546.97 132.87L548.09 133.79L549.17 134.76L550.21 135.76L551.22 136.81L552.18 137.89L553.11 139.01L553.99 140.16L554.82 141.35L555.62 142.57L556.36 143.83L557.06 145.11L557.71 146.42L558.31 147.76L558.86 149.13L559.35 150.52L559.79 151.94L560.18 153.38L560.51 154.84L560.78 156.32L561 157.83L561.15 159.35L561.25 160.88L561.28 162.44L561.28 468.09L562.2 467.92L563.11 467.74L564.02 467.57L564.93 467.4L565.83 467.24L566.73 467.07L567.63 466.91L568.52 466.75L569.4 466.59L570.29 466.43L571.17 466.27L572.04 466.12L572.91 465.96L573.78 465.81L574.64 465.67L575.5 465.52L576.35 465.38L577.2 465.23L578.04 465.09L578.88 464.96L579.71 464.82L580.54 464.69L581.37 464.56L582.19 464.43L583 464.3L583.81 464.18L584.61 464.06L585.41 463.94L586.21 463.83L587 463.71L587.78 463.6L588.56 463.5L589.33 463.39L590.1 463.29L590.86 463.19L591.61 463.09L592.36 463L593.11 462.91L593.84 462.82L594.58 462.74L595.4 462.65L596.22 462.58L597.04 462.53L597.86 462.5L598.68 462.49L599.5 462.49L600.31 462.51L601.12 462.55L601.94 462.6L602.74 462.68L603.55 462.77L604.35 462.88L605.15 463L605.95 463.14L606.74 463.3L607.53 463.48L608.32 463.67L609.1 463.88L609.88 464.11L610.65 464.35L611.42 464.62L612.18 464.89L612.94 465.19L613.7 465.5L614.45 465.82L615.19 466.17L615.93 466.53L616.66 466.9L617.39 467.3L618.11 467.7L618.82 468.13L619.53 468.57L620.23 469.03L620.92 469.5L621.61 469.99L622.29 470.49L622.96 471.01L623.62 471.55L624.28 472.1L624.93 472.67L625.63 473.3L626.31 473.96L626.99 474.63L627.64 475.31L628.28 476.01L628.91 476.72L629.52 477.45L630.12 478.19L630.7 478.94L631.26 479.71L631.81 480.48L632.34 481.27L632.86 482.07L633.36 482.88L633.84 483.7L634.31 484.53L634.76 485.37L635.19 486.22L635.61 487.07L636 487.94L636.38 488.81L636.74 489.7L637.09 490.59L637.41 491.48L637.72 492.38L638.01 493.29L638.28 494.21L638.53 495.13L638.76 496.05L638.97 496.98L639.16 497.92L639.34 498.85L639.49 499.8L639.63 500.74L639.74 501.69L639.83 502.64L639.91 503.59L639.96 504.54L639.99 505.5L640 506.45L640 542.69L639.99 543.64L639.96 544.62L639.9 545.63L639.82 546.68L639.71 547.75L639.56 548.85L639.39 549.97L639.17 551.11L638.92 552.28L638.63 553.46L638.3 554.65L637.92 555.86L637.49 557.07L637.02 558.3L636.49 559.53L635.91 560.77L635.27 562.01L634.57 563.24L633.82 564.48L632.99 565.71L632.11 566.94L631.15 568.15L630.12 569.36L629.02 570.55L627.85 571.72L626.6 572.88L625.27 574.02L623.86 575.14L622.36 576.23L620.77 577.3L619.1 578.34L617.34 579.35L615.48 580.33L613.53 581.27L611.48 582.17L609.33 583.04L607.07 583.86L604.71 584.65L602.25 585.38L599.67 586.07L598.69 586.32L597.7 586.57L596.71 586.82L595.71 587.08L594.71 587.34L593.7 587.6L592.68 587.87L591.66 588.14L590.63 588.41L589.6 588.69L588.56 588.97L587.51 589.25L586.46 589.53L585.41 589.81L584.35 590.1L583.28 590.39L582.21 590.68L581.14 590.98L580.06 591.28L578.97 591.58L577.88 591.88L576.78 592.18L575.68 592.49L574.58 592.79L573.47 593.1L572.36 593.41L571.24 593.73L570.12 594.04L568.99 594.36L567.86 594.67L566.73 594.99L565.59 595.31L564.45 595.64L563.3 595.96L562.15 596.28L561 596.61L559.84 596.94L558.68 597.26L557.52 597.59L556.35 597.92L553.82 598.64L551.27 599.36L548.71 600.08L546.13 600.81L543.54 601.54L540.94 602.27L538.34 603L535.72 603.73L533.09 604.45L530.46 605.18L527.82 605.9L525.18 606.62L522.54 607.34L519.89 608.05L517.24 608.76L514.6 609.46L511.95 610.15L509.31 610.84L506.67 611.51L504.04 612.18L501.41 612.84L498.79 613.49L496.18 614.12L493.58 614.75L490.99 615.36L488.41 615.96L485.84 616.54L483.29 617.11L480.76 617.66L478.24 618.2L475.74 618.72L473.26 619.22L470.79 619.7L468.35 620.17L465.93 620.61L463.54 621.03L461.17 621.44L458.83 621.81L456.51 622.17L454.22 622.5L452.38 622.76L450.55 623.01L448.72 623.27L446.9 623.51L445.08 623.76L443.27 624L441.46 624.23L439.65 624.46L437.84 624.69L436.03 624.91L434.22 625.13L432.41 625.34L430.6 625.55L428.78 625.75L426.97 625.94L425.15 626.13L423.32 626.32L421.49 626.5L419.66 626.67L417.81 626.84L415.97 627L414.11 627.15L412.24 627.3L410.37 627.44L408.49 627.57L406.59 627.69L404.69 627.81L402.77 627.92L400.84 628.02L398.9 628.12L396.95 628.2L394.98 628.28L392.99 628.35L390.99 628.41L388.97 628.46L386.94 628.5L384.89 628.54L382.82 628.56L380.73 628.57L378.62 628.58L375.64 628.57L372.62 628.54L369.56 628.49L366.45 628.42L363.3 628.33L360.1 628.22L356.84 628.08L353.53 627.93L350.17 627.75L346.75 627.55L343.28 627.32L339.74 627.07L336.15 626.8L332.48 626.5L328.76 626.17L324.96 625.82L321.1 625.44L317.17 625.04L313.16 624.61L309.08 624.15L304.92 623.66L300.68 623.14L296.37 622.6L291.97 622.02L287.49 621.42L282.92 620.78L278.26 620.11L273.52 619.41L268.68 618.68L263.76 617.92L258.73 617.13L253.61 616.3L248.39 615.44L243.08 614.54L237.66 613.61L232.13 612.64L226.5 611.64L220.76 610.6L214.92 609.53L208.96 608.42L203.93 607.48L199.04 606.57L194.27 605.7L189.64 604.86L185.14 604.06L180.76 603.28L176.5 602.54L172.37 601.83L168.36 601.14L164.46 600.49L160.69 599.86L157.03 599.26L153.48 598.69L150.05 598.15L146.73 597.63L143.52 597.13L140.41 596.66L137.41 596.22L134.52 595.8L131.72 595.4L129.03 595.02L126.44 594.67L123.94 594.34L121.54 594.02L119.24 593.73L117.02 593.46L114.9 593.2L112.87 592.96L110.92 592.74L109.06 592.54L107.29 592.35L105.59 592.18L103.98 592.02L102.44 591.88L100.99 591.75L99.61 591.63L98.3 591.52L97.06 591.43L95.9 591.35L94.8 591.28L94.8 602.21L94.77 603.58L94.69 604.93L94.55 606.27L94.37 607.59L94.13 608.9L93.83 610.19L93.49 611.45L93.1 612.7L92.67 613.93L92.19 615.13L91.66 616.31L91.09 617.47L90.47 618.6L89.82 619.7L89.12 620.78L88.38 621.82L87.61 622.84L86.79 623.82L85.94 624.78L85.06 625.69L84.14 626.58L83.19 627.43L82.2 628.24L81.18 629.02L80.14 629.76L79.06 630.45L77.96 631.11L76.83 631.72L75.67 632.3L74.49 632.82L73.29 633.31L72.06 633.74L70.82 634.13L69.55 634.47L68.26 634.76L66.95 635L65.63 635.19L64.29 635.33L62.94 635.41L61.57 635.44L14.23 635.44L13.94 635.44L13.66 635.43L13.38 635.41L13.1 635.4L12.82 635.37L12.54 635.34L12.26 635.3L11.99 635.26L11.71 635.22L11.44 635.16L11.16 635.11L10.89 635.04L10.62 634.98L10.36 634.9L10.09 634.82L9.82 634.74L9.56 634.65L9.3 634.56L9.04 634.46L8.78 634.36L8.53 634.25L8.27 634.13L8.02 634.02L7.77 633.89L7.53 633.76L7.28 633.63L7.04 633.49L6.8 633.35L6.57 633.2L6.33 633.05L6.1 632.89L5.87 632.73L5.65 632.57L5.43 632.39L5.21 632.22L4.99 632.04L4.78 631.85L4.57 631.67L4.37 631.47L4.17 631.27L3.97 631.07L3.77 630.87L3.59 630.66L3.4 630.45L3.22 630.23L3.05 630.01L2.88 629.79L2.71 629.57L2.55 629.34L2.39 629.11L2.24 628.87L2.09 628.64L1.95 628.4L1.81 628.16L1.68 627.91L1.55 627.67L1.42 627.42L1.31 627.17L1.19 626.91L1.08 626.66L0.98 626.4L0.88 626.14L0.79 625.88L0.7 625.62L0.62 625.35L0.54 625.09L0.46 624.82L0.4 624.55L0.33 624.28L0.28 624L0.22 623.73L0.18 623.45L0.14 623.18L0.1 622.9L0.07 622.62L0.04 622.34L0.03 622.06L0.01 621.78L0 621.5L0 621.21L0 420.25L0.01 419.66L0.05 419.08L0.11 418.51L0.19 417.94L0.29 417.38L0.41 416.83L0.56 416.29L0.73 415.75L0.91 415.23L1.12 414.71L1.34 414.21L1.59 413.71L1.85 413.23L2.13 412.76L2.43 412.3L2.74 411.85L3.08 411.42L3.42 410.99L3.79 410.59L4.17 410.19L4.56 409.81L4.97 409.45L5.39 409.1L5.82 408.77L6.27 408.46L6.73 408.16L7.2 407.88L7.69 407.61L8.18 407.37L8.69 407.14L9.2 406.94L9.73 406.75L10.26 406.58L10.81 406.44L11.36 406.31L11.92 406.21L12.48 406.13L13.06 406.07L13.64 406.04L14.23 406.03L61.57 406.03L62.36 406.04L63.14 406.06L63.91 406.11L64.69 406.17L65.45 406.25L66.21 406.35L66.97 406.46L67.72 406.6L68.46 406.74L69.2 406.91L69.93 407.09L70.65 407.29L71.37 407.5L72.08 407.73L72.79 407.98L73.48 408.24L74.17 408.51L74.86 408.8L75.53 409.1L76.2 409.42L76.85 409.76L77.5 410.1L78.15 410.47L78.78 410.84L79.4 411.23L80.01 411.63L80.62 412.05L81.21 412.47L81.8 412.91L82.37 413.37L82.94 413.83L83.49 414.31L84.03 414.8L84.57 415.3L85.09 415.81L85.6 416.33L86.1 416.87L86.58 417.41L87.06 417.97L87.52 418.53L87.96 418.03L88.4 417.53L88.84 417.03L89.29 416.52L89.75 416.01L90.21 415.5L90.68 414.98L91.16 414.46L91.64 413.94L92.12 413.42L92.61 412.9L93.11 412.37L93.62 411.84L94.13 411.31L94.64 410.78L95.16 410.25L95.69 409.71L96.22 409.17L96.76 408.63L97.31 408.08L97.86 407.54L98.42 406.99L98.99 406.44L99.56 405.89L100.13 405.34L100.72 404.78L101.31 404.22L101.91 403.67L102.51 403.1L103.12 402.54L103.74 401.98L104.36 401.41L104.99 400.84L105.63 400.27L106.27 399.7L106.92 399.13L107.58 398.55L108.24 397.97L108.91 397.39L109.59 396.81L111.66 395.08L113.76 393.39L115.88 391.75L118.02 390.16L120.18 388.61L122.36 387.11L124.56 385.65L126.77 384.24L128.99 382.87L131.23 381.54L133.48 380.25L135.74 379.01L138 377.81L140.28 376.64L142.56 375.52L144.85 374.43L147.13 373.39L149.43 372.37L151.72 371.4L154.01 370.46L156.3 369.56L158.59 368.69L160.87 367.86L163.15 367.06L165.42 366.29L167.69 365.55L169.94 364.85L172.18 364.17L174.41 363.53L176.63 362.91L178.83 362.33L181.02 361.77L183.19 361.24L185.34 360.73L187.47 360.25L189.58 359.8L191.67 359.37L193.73 358.96L195.77 358.58L197.78 358.22L197.78 162.44L197.81 160.88L197.9 159.35L198.06 157.83L198.27 156.32L198.54 154.84L198.88 153.38L199.26 151.94L199.7 150.52L200.2 149.13L200.75 147.76L201.35 146.42L202 145.11L202.69 143.83L203.44 142.57L204.23 141.35L205.07 140.16L205.95 139.01L206.87 137.89L207.84 136.81L208.84 135.77L209.89 134.76L210.97 133.8L212.09 132.87L213.24 131.99L214.43 131.15L215.65 130.36L216.9 129.62L218.19 128.92L219.5 128.27L220.84 127.67L222.21 127.12L223.6 126.63L225.02 126.19L226.46 125.8L227.92 125.47L229.4 125.2L230.9 124.98L232.42 124.83L233.96 124.73L235.51 124.7L295.94 124.7L295.94 88.14L296.01 84.7L296.22 81.3L296.56 77.93L297.04 74.6L297.64 71.32L298.38 68.08L299.23 64.89L300.21 61.75L301.31 58.67L302.52 55.64L303.85 52.67L305.29 49.76L306.83 46.92L308.48 44.15L310.24 41.44L312.09 38.81L314.04 36.26L316.09 33.78L318.22 31.38L320.45 29.07L322.76 26.84L325.16 24.7L327.64 22.66L330.19 20.71L332.83 18.85L335.53 17.1L338.31 15.45L341.15 13.9L344.05 12.46L347.02 11.14L350.05 9.92L353.14 8.83L356.27 7.85L359.46 6.99L362.7 6.26L365.99 5.65L369.31 5.18L372.68 4.84L376.09 4.63L379.53 4.56L382.97 4.63L386.37 4.84ZM28.45 606.99L61.57 606.99L61.7 606.99L61.83 606.98L61.97 606.96L62.09 606.94L62.22 606.91L62.35 606.88L62.48 606.84L62.61 606.8L62.73 606.75L62.86 606.69L62.98 606.63L63.11 606.56L63.23 606.48L63.36 606.4L63.48 606.32L63.6 606.22L63.72 606.13L63.84 606.02L63.96 605.91L64.08 605.79L64.2 605.67L64.32 605.54L64.44 605.41L64.56 605.27L64.67 605.12L64.79 604.97L64.91 604.81L65.02 604.65L65.13 604.48L65.25 604.3L65.36 604.12L65.47 603.93L65.59 603.74L65.7 603.54L65.81 603.33L65.92 603.12L66.03 602.9L66.14 602.68L66.24 602.45L66.35 602.21L66.35 439.26L66.35 439.06L66.34 438.86L66.32 438.67L66.29 438.48L66.25 438.29L66.21 438.11L66.16 437.93L66.11 437.75L66.04 437.57L65.97 437.4L65.9 437.23L65.82 437.06L65.73 436.9L65.63 436.74L65.53 436.59L65.43 436.44L65.32 436.29L65.2 436.15L65.08 436.01L64.95 435.88L64.82 435.75L64.68 435.63L64.54 435.51L64.39 435.4L64.24 435.3L64.09 435.19L63.93 435.1L63.77 435.01L63.6 434.93L63.43 434.85L63.26 434.78L63.08 434.72L62.9 434.67L62.72 434.62L62.53 434.58L62.35 434.54L62.16 434.51L61.96 434.49L61.77 434.48L61.57 434.48L28.45 434.48L28.45 606.99ZM235.86 383.06L234.35 383.09L232.65 383.15L230.77 383.22L228.71 383.32L226.49 383.46L224.11 383.63L221.58 383.84L218.91 384.09L216.11 384.39L213.18 384.74L210.14 385.14L206.99 385.61L203.75 386.13L200.41 386.72L196.99 387.39L193.51 388.12L189.95 388.94L186.34 389.83L182.69 390.81L179 391.89L175.27 393.05L171.53 394.31L167.77 395.68L164.01 397.14L160.25 398.72L156.51 400.41L152.79 402.22L149.1 404.15L145.44 406.2L141.84 408.38L138.28 410.69L134.8 413.14L131.38 415.73L128.05 418.46L126.63 419.69L125.24 420.9L123.89 422.1L122.58 423.29L121.31 424.47L120.07 425.64L118.87 426.79L117.7 427.93L116.57 429.06L115.47 430.17L114.4 431.27L113.37 432.36L112.38 433.43L111.41 434.48L110.48 435.52L109.57 436.54L108.7 437.54L107.86 438.53L107.05 439.5L106.27 440.45L105.52 441.38L104.8 442.3L104.1 443.19L103.44 444.07L102.8 444.92L102.19 445.76L101.6 446.58L101.04 447.37L100.51 448.14L100 448.89L99.51 449.62L99.05 450.33L98.62 451.01L98.2 451.67L97.81 452.31L97.44 452.92L97.1 453.51L96.77 454.07L96.47 454.61L96.18 455.12L96.15 455.17L96.12 455.23L96.09 455.28L96.06 455.34L96.03 455.39L96 455.45L95.97 455.5L95.93 455.56L95.9 455.61L95.87 455.66L95.84 455.72L95.8 455.77L95.77 455.82L95.74 455.87L95.7 455.93L95.67 455.98L95.64 456.03L95.6 456.08L95.57 456.13L95.53 456.18L95.5 456.23L95.46 456.28L95.43 456.34L95.39 456.39L95.36 456.44L95.32 456.49L95.28 456.54L95.25 456.59L95.21 456.64L95.18 456.68L95.14 456.73L95.1 456.78L95.06 456.83L95.03 456.88L94.99 456.93L94.95 456.98L94.92 457.03L94.88 457.07L94.84 457.12L94.8 457.17L94.8 562.79L96.09 562.86L97.45 562.95L98.87 563.04L100.36 563.15L101.93 563.28L103.56 563.41L105.28 563.57L107.07 563.73L108.93 563.92L110.88 564.12L112.9 564.33L115.01 564.56L117.21 564.82L119.49 565.09L121.85 565.38L124.31 565.68L126.86 566.01L129.5 566.36L132.23 566.73L135.06 567.13L137.98 567.54L141.01 567.98L144.13 568.44L147.36 568.93L150.69 569.44L154.13 569.98L157.67 570.54L161.33 571.13L165.09 571.74L168.96 572.39L172.95 573.06L177.05 573.76L181.27 574.49L185.61 575.25L190.07 576.04L194.65 576.86L199.35 577.71L204.17 578.59L209.13 579.51L214.21 580.46L224.05 582.28L233.58 584.01L242.8 585.63L251.72 587.15L260.35 588.57L268.71 589.9L276.79 591.13L284.61 592.28L292.17 593.33L299.5 594.3L306.58 595.19L313.44 595.99L320.09 596.71L326.52 597.36L332.76 597.93L338.8 598.43L344.67 598.86L350.36 599.22L355.89 599.51L361.26 599.74L366.49 599.91L371.59 600.02L376.55 600.07L381.4 600.07L386.14 600.01L390.78 599.9L395.33 599.75L399.79 599.54L404.19 599.3L408.52 599.01L412.79 598.68L417.02 598.32L421.21 597.92L425.37 597.49L429.51 597.02L433.64 596.53L437.78 596.02L441.91 595.47L446.07 594.91L450.25 594.33L452.4 594.02L454.58 593.68L456.79 593.32L459.03 592.94L461.29 592.54L463.59 592.12L465.9 591.67L468.25 591.21L470.61 590.73L473 590.23L475.41 589.71L477.83 589.18L480.28 588.63L482.74 588.07L485.22 587.49L487.71 586.9L490.21 586.3L492.73 585.68L495.26 585.05L497.79 584.42L500.34 583.77L502.89 583.11L505.45 582.45L508.01 581.77L510.57 581.09L513.14 580.41L515.71 579.71L518.28 579.02L520.84 578.32L523.41 577.61L525.96 576.91L528.52 576.2L531.07 575.49L533.6 574.78L536.14 574.07L538.66 573.36L541.16 572.65L543.66 571.95L546.14 571.24L548.61 570.55L549.79 570.21L550.97 569.88L552.14 569.55L553.32 569.22L554.48 568.89L555.65 568.56L556.81 568.23L557.97 567.9L559.12 567.58L560.27 567.25L561.42 566.93L562.56 566.61L563.7 566.29L564.83 565.98L565.96 565.66L567.09 565.35L568.21 565.03L569.33 564.72L570.44 564.42L571.55 564.11L572.65 563.81L573.75 563.5L574.85 563.2L575.94 562.91L577.02 562.61L578.11 562.32L579.18 562.03L580.25 561.74L581.32 561.45L582.38 561.17L583.44 560.89L584.49 560.61L585.54 560.33L586.58 560.06L587.61 559.79L588.64 559.52L589.67 559.26L590.69 559L591.7 558.74L592.71 558.48L593.64 558.24L594.55 557.99L595.43 557.73L596.29 557.47L597.13 557.2L597.94 556.92L598.73 556.63L599.49 556.33L600.24 556.03L600.95 555.71L601.65 555.39L602.32 555.07L602.97 554.73L603.59 554.39L604.19 554.03L604.77 553.68L605.32 553.31L605.85 552.93L606.36 552.55L606.84 552.16L607.3 551.76L607.74 551.35L608.15 550.94L608.54 550.52L608.9 550.09L609.24 549.65L609.56 549.2L609.85 548.75L610.13 548.29L610.37 547.82L610.6 547.34L610.8 546.86L610.97 546.36L611.13 545.86L611.26 545.35L611.36 544.84L611.44 544.31L611.5 543.78L611.54 543.24L611.55 542.69L611.55 506.45L611.55 506.1L611.53 505.75L611.52 505.4L611.49 505.04L611.45 504.69L611.41 504.34L611.36 503.99L611.3 503.64L611.24 503.29L611.16 502.94L611.08 502.6L611 502.25L610.9 501.91L610.8 501.57L610.7 501.23L610.58 500.89L610.46 500.55L610.33 500.22L610.2 499.89L610.06 499.56L609.91 499.24L609.75 498.92L609.59 498.6L609.43 498.29L609.26 497.98L609.08 497.67L608.89 497.37L608.7 497.07L608.51 496.78L608.3 496.49L608.1 496.21L607.88 495.93L607.67 495.65L607.44 495.38L607.21 495.12L606.98 494.86L606.74 494.61L606.49 494.37L606.24 494.13L605.99 493.9L605.86 493.78L605.72 493.66L605.58 493.54L605.44 493.43L605.29 493.31L605.13 493.19L604.98 493.08L604.82 492.96L604.66 492.85L604.49 492.73L604.32 492.62L604.14 492.51L603.96 492.4L603.78 492.3L603.59 492.19L603.4 492.09L603.21 491.99L603.01 491.9L602.81 491.8L602.61 491.71L602.4 491.63L602.19 491.55L601.97 491.47L601.75 491.4L601.53 491.33L601.31 491.27L601.08 491.21L600.85 491.15L600.61 491.11L600.37 491.06L600.13 491.03L599.88 491L599.64 490.97L599.38 490.96L599.13 490.94L598.87 490.94L598.61 490.94L598.35 490.96L598.08 490.97L597.81 491L596.51 491.15L595.19 491.32L593.84 491.49L592.47 491.67L591.08 491.87L589.67 492.07L588.23 492.28L586.78 492.5L585.3 492.74L583.81 492.97L582.3 493.22L580.77 493.48L579.22 493.74L577.65 494.01L576.06 494.29L574.46 494.58L572.84 494.87L571.21 495.17L569.56 495.48L567.89 495.79L566.21 496.11L564.52 496.43L562.81 496.76L561.09 497.1L559.36 497.44L557.62 497.78L555.86 498.13L554.09 498.48L552.31 498.84L550.52 499.2L548.72 499.56L546.92 499.93L545.1 500.3L543.27 500.68L541.44 501.05L539.6 501.43L537.75 501.81L535.9 502.19L534.03 502.58L532.17 502.96L529.5 503.51L526.84 504.06L524.17 504.61L521.49 505.16L518.82 505.71L516.14 506.25L513.47 506.8L510.8 507.34L508.13 507.87L505.46 508.41L502.79 508.93L500.13 509.46L497.48 509.97L494.83 510.48L492.18 510.99L489.55 511.48L486.92 511.97L484.3 512.45L481.7 512.92L479.1 513.38L476.51 513.83L473.94 514.27L471.38 514.7L468.83 515.11L466.3 515.52L463.78 515.91L461.28 516.28L458.8 516.65L456.34 516.99L453.89 517.33L451.47 517.64L449.06 517.94L446.67 518.23L444.31 518.49L441.97 518.74L439.66 518.97L437.36 519.18L435.1 519.37L432.86 519.54L430.64 519.68L428.8 519.78L426.86 519.86L424.84 519.91L422.73 519.93L420.55 519.93L418.29 519.9L415.97 519.84L413.58 519.77L411.14 519.66L408.65 519.54L406.11 519.38L403.53 519.21L400.92 519.01L398.28 518.78L395.61 518.54L392.92 518.27L390.22 517.97L387.51 517.65L384.8 517.31L382.09 516.95L379.38 516.56L376.69 516.15L374.02 515.72L371.37 515.27L368.74 514.79L366.15 514.3L363.6 513.78L361.09 513.24L358.63 512.67L356.23 512.09L353.88 511.49L351.6 510.86L349.39 510.22L347.26 509.55L345.2 508.87L343.24 508.16L341.36 507.43L339.58 506.69L337.9 505.92L336.33 505.14L334.7 504.26L333.12 503.36L331.59 502.45L330.11 501.52L328.68 500.57L327.3 499.61L325.96 498.63L324.68 497.64L323.43 496.64L322.24 495.63L321.09 494.61L319.98 493.57L318.91 492.53L317.89 491.49L316.91 490.44L315.97 489.38L315.06 488.32L314.2 487.25L313.37 486.19L312.58 485.12L311.83 484.05L311.11 482.98L310.42 481.92L309.77 480.86L309.15 479.8L308.57 478.74L308.01 477.7L307.48 476.65L306.99 475.62L306.52 474.6L306.08 473.58L305.67 472.57L305.28 471.58L304.92 470.6L304.58 469.63L304.26 468.68L303.97 467.74L303.7 466.82L303.45 465.92L303.22 465.04L240.93 465.04L240.35 465.02L239.77 464.99L239.19 464.93L238.63 464.85L238.07 464.75L237.52 464.62L236.97 464.48L236.44 464.31L235.91 464.12L235.4 463.92L234.89 463.69L234.4 463.45L233.91 463.19L233.44 462.91L232.98 462.61L232.53 462.29L232.1 461.96L231.68 461.61L231.27 461.25L230.87 460.87L230.5 460.48L230.13 460.07L229.78 459.65L229.45 459.21L229.14 458.76L228.84 458.3L228.56 457.83L228.3 457.35L228.05 456.85L227.83 456.35L227.62 455.83L227.43 455.31L227.27 454.77L227.12 454.23L227 453.68L226.89 453.12L226.81 452.55L226.76 451.98L226.72 451.4L226.71 450.81L226.72 450.22L226.76 449.64L226.81 449.07L226.89 448.5L227 447.94L227.12 447.39L227.27 446.85L227.43 446.32L227.62 445.79L227.83 445.27L228.05 444.77L228.3 444.27L228.56 443.79L228.84 443.32L229.14 442.86L229.45 442.41L229.78 441.98L230.13 441.55L230.5 441.15L230.87 440.75L231.27 440.37L231.68 440.01L232.1 439.66L232.53 439.33L232.98 439.02L233.44 438.72L233.91 438.44L234.4 438.17L234.89 437.93L235.4 437.7L235.91 437.5L236.44 437.31L236.97 437.14L237.52 437L238.07 436.88L238.63 436.77L239.19 436.69L239.77 436.63L240.35 436.6L240.93 436.59L386.42 436.59L386.89 436.58L387.34 436.55L387.79 436.5L388.24 436.44L388.68 436.36L389.11 436.26L389.54 436.15L389.96 436.01L390.37 435.87L390.78 435.71L391.17 435.53L391.56 435.34L391.94 435.13L392.32 434.91L392.68 434.67L393.03 434.42L393.37 434.16L393.7 433.89L394.03 433.6L394.33 433.3L394.63 433L394.92 432.67L395.19 432.34L395.45 432L395.7 431.65L395.94 431.29L396.16 430.91L396.37 430.53L396.56 430.14L396.74 429.75L396.9 429.34L397.05 428.93L397.18 428.51L397.29 428.08L397.39 427.65L397.47 427.21L397.53 426.76L397.58 426.31L397.61 425.86L397.62 425.4L397.62 394.27L397.61 393.81L397.58 393.35L397.53 392.9L397.47 392.45L397.39 392.01L397.29 391.58L397.18 391.15L397.05 390.73L396.9 390.32L396.74 389.92L396.56 389.52L396.37 389.13L396.16 388.75L395.94 388.38L395.7 388.01L395.45 387.66L395.19 387.32L394.92 386.99L394.63 386.67L394.33 386.36L394.03 386.06L393.7 385.77L393.37 385.5L393.03 385.24L392.68 384.99L392.32 384.76L391.94 384.53L391.56 384.33L391.17 384.14L390.78 383.96L390.37 383.8L389.96 383.65L389.54 383.52L389.11 383.4L388.68 383.3L388.24 383.22L387.79 383.16L387.34 383.11L386.89 383.09L386.42 383.08L240.93 383.08L240.91 383.08L240.86 383.08L240.84 383.08L240.8 383.08L240.75 383.08L240.73 383.08L240.68 383.07L240.64 383.07L240.6 383.07L240.56 383.07L240.52 383.07L240.48 383.07L240.46 383.07L240.42 383.07L240.38 383.07L240.21 383.06L239.79 383.05L239.14 383.04L238.26 383.04L237.16 383.05L235.86 383.06ZM463.11 184.55L463.1 185.13L463.07 185.71L463.01 186.29L462.93 186.85L462.83 187.41L462.7 187.96L462.56 188.51L462.39 189.04L462.2 189.57L462 190.08L461.77 190.59L461.53 191.08L461.26 191.57L460.98 192.04L460.68 192.5L460.37 192.95L460.04 193.38L459.69 193.8L459.33 194.21L458.95 194.6L458.55 194.98L458.15 195.35L457.73 195.69L457.29 196.03L456.84 196.34L456.38 196.64L455.91 196.92L455.43 197.18L454.93 197.43L454.43 197.65L453.91 197.86L453.39 198.05L452.85 198.21L452.31 198.36L451.76 198.48L451.2 198.58L450.63 198.67L450.06 198.72L449.48 198.76L448.89 198.77L448.3 198.76L447.72 198.72L447.15 198.67L446.58 198.58L446.02 198.48L445.47 198.36L444.93 198.21L444.39 198.05L443.87 197.86L443.35 197.65L442.85 197.43L442.35 197.18L441.87 196.92L441.4 196.64L440.94 196.34L440.49 196.03L440.05 195.69L439.63 195.35L439.22 194.98L438.83 194.6L438.45 194.21L438.09 193.8L437.74 193.38L437.41 192.95L437.09 192.5L436.79 192.04L436.51 191.57L436.25 191.08L436.01 190.59L435.78 190.08L435.58 189.57L435.39 189.04L435.22 188.51L435.08 187.96L434.95 187.41L434.85 186.85L434.77 186.29L434.71 185.71L434.68 185.13L434.66 184.55L434.66 153.15L324.39 153.15L324.39 184.55L324.38 185.13L324.34 185.71L324.29 186.29L324.21 186.85L324.1 187.41L323.98 187.96L323.83 188.51L323.67 189.04L323.48 189.57L323.27 190.08L323.05 190.59L322.8 191.08L322.54 191.57L322.26 192.04L321.96 192.5L321.65 192.95L321.32 193.38L320.97 193.8L320.6 194.21L320.23 194.6L319.83 194.98L319.42 195.35L319 195.69L318.57 196.03L318.12 196.34L317.66 196.64L317.19 196.92L316.7 197.18L316.21 197.43L315.7 197.65L315.19 197.86L314.66 198.05L314.13 198.21L313.58 198.36L313.03 198.48L312.47 198.58L311.91 198.67L311.33 198.72L310.75 198.76L310.17 198.77L309.58 198.76L309 198.72L308.43 198.67L307.86 198.58L307.3 198.48L306.75 198.36L306.2 198.21L305.67 198.05L305.14 197.86L304.63 197.65L304.12 197.43L303.63 197.18L303.15 196.92L302.67 196.64L302.21 196.34L301.76 196.03L301.33 195.69L300.91 195.35L300.5 194.98L300.11 194.6L299.73 194.21L299.37 193.8L299.02 193.38L298.69 192.95L298.37 192.5L298.07 192.04L297.79 191.57L297.53 191.08L297.28 190.59L297.06 190.08L296.85 189.57L296.67 189.04L296.5 188.51L296.35 187.96L296.23 187.41L296.13 186.85L296.05 186.29L295.99 185.71L295.95 185.13L295.94 184.55L295.94 153.15L235.51 153.15L235.26 153.16L235 153.17L234.75 153.2L234.5 153.24L234.25 153.3L234 153.36L233.75 153.44L233.5 153.52L233.26 153.62L233.01 153.73L232.77 153.85L232.53 153.99L232.29 154.13L232.05 154.29L231.81 154.46L231.57 154.64L231.33 154.83L231.1 155.03L230.86 155.25L230.63 155.47L230.4 155.71L230.17 155.96L229.94 156.22L229.71 156.49L229.48 156.78L229.26 157.07L229.03 157.38L228.81 157.7L228.59 158.03L228.37 158.37L228.15 158.73L227.93 159.09L227.71 159.47L227.5 159.86L227.28 160.26L227.07 160.67L226.86 161.1L226.64 161.53L226.43 161.98L226.23 162.44L226.23 354.93L226.83 354.89L227.42 354.86L227.99 354.83L228.56 354.81L229.12 354.78L229.67 354.76L230.21 354.74L230.74 354.72L231.25 354.7L231.76 354.68L232.25 354.67L232.73 354.65L233.2 354.64L233.66 354.63L234.11 354.62L234.55 354.61L234.97 354.6L235.38 354.6L235.78 354.59L236.17 354.59L236.55 354.59L236.91 354.58L237.26 354.58L237.6 354.58L237.92 354.58L238.24 354.58L238.53 354.58L238.82 354.59L239.09 354.59L239.35 354.59L239.6 354.59L239.83 354.6L240.05 354.6L240.25 354.6L240.44 354.61L240.62 354.61L240.78 354.62L240.93 354.62L241.06 354.62L241.18 354.63L386.42 354.63L388.06 354.66L389.67 354.76L391.27 354.92L392.85 355.15L394.4 355.43L395.94 355.78L397.45 356.19L398.94 356.65L400.4 357.17L401.84 357.75L403.25 358.38L404.63 359.06L405.98 359.79L407.29 360.57L408.57 361.41L409.82 362.28L411.03 363.21L412.21 364.18L413.35 365.19L414.44 366.25L415.5 367.35L416.51 368.48L417.48 369.66L418.41 370.87L419.29 372.12L420.12 373.4L420.9 374.72L421.64 376.06L422.32 377.44L422.95 378.85L423.52 380.29L424.04 381.75L424.51 383.24L424.91 384.75L425.26 386.29L425.55 387.84L425.77 389.42L425.94 391.02L426.03 392.63L426.07 394.27L426.07 425.4L426.03 427.03L425.94 428.64L425.77 430.24L425.55 431.82L425.26 433.37L424.91 434.91L424.51 436.42L424.04 437.91L423.52 439.37L422.95 440.81L422.32 442.22L421.64 443.6L420.9 444.95L420.12 446.26L419.29 447.54L418.41 448.79L417.48 450L416.51 451.18L415.5 452.32L414.44 453.41L413.35 454.47L412.21 455.48L411.03 456.45L409.82 457.38L408.57 458.26L407.29 459.09L405.98 459.87L404.63 460.61L403.25 461.29L401.84 461.92L400.4 462.49L398.94 463.01L397.45 463.48L395.94 463.88L394.4 464.23L392.85 464.52L391.27 464.74L389.67 464.9L388.06 465L386.42 465.04L333.44 465.04L333.64 465.4L333.86 465.77L334.08 466.14L334.31 466.52L334.55 466.89L334.8 467.27L335.06 467.65L335.32 468.03L335.6 468.41L335.88 468.79L336.17 469.17L336.48 469.56L336.79 469.94L337.11 470.32L337.45 470.71L337.79 471.09L338.15 471.48L338.51 471.86L338.89 472.25L339.27 472.63L339.67 473.01L340.08 473.39L340.5 473.77L340.93 474.15L341.37 474.53L341.83 474.91L342.29 475.28L342.77 475.66L343.27 476.03L343.77 476.4L344.29 476.76L344.82 477.13L345.36 477.49L345.91 477.85L346.48 478.2L347.06 478.56L347.66 478.91L348.27 479.25L348.89 479.6L349.53 479.94L350.54 480.44L351.66 480.93L352.89 481.43L354.21 481.92L355.63 482.4L357.14 482.88L358.73 483.35L360.41 483.82L362.16 484.28L363.98 484.73L365.87 485.18L367.82 485.61L369.83 486.03L371.9 486.45L374.01 486.85L376.16 487.24L378.36 487.62L380.58 487.98L382.84 488.33L385.13 488.67L387.43 488.99L389.75 489.29L392.08 489.58L394.41 489.85L396.75 490.11L399.09 490.34L401.41 490.55L403.73 490.75L406.03 490.92L408.31 491.08L410.56 491.21L412.78 491.32L414.96 491.4L417.11 491.46L419.21 491.5L421.26 491.51L423.25 491.49L425.19 491.45L427.06 491.39L428.87 491.29L430.94 491.15L433.03 490.99L435.16 490.81L437.31 490.61L439.49 490.39L441.7 490.16L443.94 489.9L446.2 489.63L448.48 489.34L450.79 489.04L453.12 488.72L455.47 488.38L457.84 488.03L460.23 487.67L462.64 487.29L465.07 486.9L467.52 486.5L469.98 486.08L472.46 485.66L474.95 485.22L477.45 484.78L479.97 484.32L482.5 483.85L485.04 483.38L487.59 482.9L490.15 482.41L492.72 481.91L495.29 481.41L497.87 480.9L500.46 480.39L503.05 479.87L505.64 479.35L508.24 478.83L510.84 478.3L513.44 477.77L516.04 477.23L518.64 476.7L521.23 476.17L523.83 475.63L526.42 475.1L526.58 475.06L526.75 475.03L526.91 475L527.07 474.96L527.23 474.93L527.4 474.9L527.56 474.86L527.72 474.83L527.88 474.8L528.05 474.76L528.21 474.73L528.37 474.7L528.53 474.66L528.86 474.59L529.18 474.53L529.34 474.49L529.67 474.43L529.99 474.36L530.8 474.2L531.28 474.1L531.61 474.03L531.77 474L532.09 473.93L532.25 473.9L532.41 473.86L532.57 473.83L532.74 473.8L532.9 473.76L532.89 473.73L532.89 473.7L532.89 473.66L532.88 473.63L532.88 473.59L532.88 473.56L532.88 473.53L532.87 473.49L532.87 473.46L532.87 473.42L532.87 473.39L532.86 473.36L532.86 473.32L532.86 473.29L532.86 473.25L532.85 473.22L532.85 473.19L532.85 473.15L532.85 473.12L532.85 473.08L532.84 473.05L532.84 473.02L532.84 472.98L532.84 472.95L532.84 472.91L532.84 472.88L532.84 472.84L532.83 472.81L532.83 472.78L532.83 472.74L532.83 472.71L532.83 472.67L532.83 472.64L532.83 472.6L532.83 472.57L532.83 472.53L532.83 472.5L532.83 472.47L532.83 472.43L532.83 472.4L532.83 162.44L532.82 162.05L532.8 161.68L532.76 161.3L532.71 160.93L532.64 160.57L532.56 160.21L532.46 159.85L532.35 159.5L532.23 159.16L532.1 158.83L531.95 158.5L531.79 158.17L531.62 157.86L531.43 157.55L531.24 157.25L531.03 156.96L530.82 156.67L530.59 156.4L530.35 156.13L530.1 155.87L529.85 155.63L529.58 155.39L529.31 155.16L529.02 154.94L528.73 154.74L528.43 154.54L528.12 154.36L527.81 154.19L527.48 154.03L527.15 153.88L526.82 153.75L526.47 153.62L526.13 153.52L525.77 153.42L525.41 153.34L525.05 153.27L524.68 153.22L524.3 153.18L523.92 153.16L523.54 153.15L463.11 153.15L463.11 184.55ZM376.5 33.15L375 33.32L373.5 33.56L372.01 33.87L370.53 34.25L369.06 34.7L367.59 35.21L366.13 35.8L364.68 36.46L363.23 37.18L361.79 37.97L360.36 38.83L358.94 39.76L357.52 40.76L356.11 41.83L354.71 42.97L353.31 44.17L351.92 45.45L350.54 46.79L349.17 48.21L347.8 49.69L346.44 51.24L345.08 52.86L343.74 54.55L342.4 56.3L341.06 58.13L339.74 60.03L338.42 61.99L337.11 64.02L335.81 66.12L334.51 68.3L333.22 70.54L331.94 72.84L330.66 75.22L329.39 77.67L328.13 80.18L326.88 82.77L325.63 85.42L324.39 88.14L324.39 124.7L434.66 124.7L434.66 88.14L434.61 85.87L434.48 83.63L434.25 81.41L433.94 79.21L433.54 77.05L433.06 74.91L432.49 72.81L431.85 70.74L431.12 68.7L430.32 66.7L429.45 64.75L428.5 62.83L427.48 60.95L426.39 59.12L425.23 57.34L424.01 55.6L422.72 53.92L421.37 52.28L419.96 50.7L418.49 49.18L416.97 47.71L415.39 46.3L413.75 44.95L412.07 43.66L410.33 42.44L408.55 41.28L406.72 40.19L404.84 39.17L402.92 38.22L400.97 37.35L398.97 36.55L396.93 35.82L394.86 35.18L392.76 34.61L390.62 34.13L388.46 33.73L386.26 33.42L384.04 33.19L381.79 33.06L379.52 33.01L378.01 33.04L376.5 33.15Z" id="b3lPfi3F3"></path></defs><g><g><g><use xlink:href="#b3lPfi3F3" opacity="1" fill="#5697d7" fill-opacity="1"></use><g><use xlink:href="#b3lPfi3F3" opacity="1" fill-opacity="0" stroke="#000000" stroke-width="1" stroke-opacity="0"></use></g></g></g></g></svg>