<svg xmlns="http://www.w3.org/2000/svg" viewBox="0 0 19.22 19.75"><title>icon-ca-Recurso 1</title><g id="Capa_2" data-name="Capa 2"><g id="Capa_1-2" data-name="Capa 1"><path d="M16.55,1.6H15V0H13.88V1.6H5.34V0H4.27V1.6H2.67A2.68,2.68,0,0,0,0,4.27V17.08a2.68,2.68,0,0,0,2.67,2.67H16.55a2.68,2.68,0,0,0,2.67-2.67V4.27A2.68,2.68,0,0,0,16.55,1.6Zm1.6,15.48a1.6,1.6,0,0,1-1.6,1.6H2.67a1.6,1.6,0,0,1-1.6-1.6V6.94H18.15Zm0-11.21H1.07V4.27a1.6,1.6,0,0,1,1.6-1.6h1.6V3.74H5.34V2.67h8.54V3.74H15V2.67h1.6a1.6,1.6,0,0,1,1.6,1.6Z"/><path d="M8.54,12.28h2.14a1.07,1.07,0,0,0,1.06-1.07V9.07A1.07,1.07,0,0,0,10.68,8H8.54A1.07,1.07,0,0,0,7.47,9.07v2.14A1.07,1.07,0,0,0,8.54,12.28Zm0-3.21h2.14v2.14H8.54Z"/><path d="M13.88,12.28H16a1.07,1.07,0,0,0,1.07-1.07V9.07A1.07,1.07,0,0,0,16,8H13.88a1.07,1.07,0,0,0-1.07,1.06v2.14A1.07,1.07,0,0,0,13.88,12.28Zm0-3.21H16v2.14H13.88Z"/><path d="M3.2,17.61H5.34a1.06,1.06,0,0,0,1.07-1.06V14.41a1.07,1.07,0,0,0-1.07-1.07H3.2a1.07,1.07,0,0,0-1.07,1.07v2.14A1.06,1.06,0,0,0,3.2,17.61Zm0-3.2H5.34v2.14H3.2Z"/><path d="M8.54,17.61h2.14a1.06,1.06,0,0,0,1.06-1.06V14.41a1.07,1.07,0,0,0-1.06-1.07H8.54a1.07,1.07,0,0,0-1.07,1.07v2.14A1.06,1.06,0,0,0,8.54,17.61Zm0-3.2h2.14v2.14H8.54Z"/><path d="M13.88,17.61H16a1.06,1.06,0,0,0,1.07-1.06V14.41A1.07,1.07,0,0,0,16,13.34H13.88a1.07,1.07,0,0,0-1.07,1.07v2.14A1.06,1.06,0,0,0,13.88,17.61Zm0-3.2H16v2.14H13.88Z"/></g></g></svg>