<?xml version="1.0" encoding="utf-8"?>
<!-- Generator: Adobe Illustrator 22.1.0, SVG Export Plug-In . SVG Version: 6.00 Build 0)  -->
<svg version="1.1" id="Capa_1" xmlns="http://www.w3.org/2000/svg" xmlns:xlink="http://www.w3.org/1999/xlink" x="0px" y="0px"
	 viewBox="0 0 94.4 90.5" style="enable-background:new 0 0 94.4 90.5;" xml:space="preserve">
<style type="text/css">
	.st0{fill:#6C757D;}
</style>
<title>icon-edit-cpRecurso 1</title>
<g id="Capa_2_1_">
	<g id="Capa_1-2">
		<path class="st0" d="M93.6,8.2l-7.2-7.3C85.9,0.3,85.1,0,84.3,0l0,0c-0.8,0-1.6,0.3-2.1,0.9L40.3,43.4c-0.3,0.3-0.5,0.6-0.7,1
			l-4.7,11.9c-0.4,1.1-0.2,2.4,0.7,3.2c0.5,0.6,1.3,0.9,2.1,0.9c0.4,0,0.7-0.1,1.1-0.2l11.8-4.7c0.4-0.2,0.7-0.4,1-0.7l41.9-42.5
			C94.7,11.2,94.7,9.4,93.6,8.2C93.6,8.2,93.6,8.2,93.6,8.2z"/>
		<path class="st0" d="M74.5,41.1c-3,0-5.5,2.5-5.5,5.5v32.9H11v-63h48.1c3,0,5.5-2.5,5.5-5.5s-2.5-5.5-5.5-5.5H5.5
			C2.6,5.4,0.1,7.7,0,10.6c0,0.1,0,0.1,0,0.2V85c0,3,2.5,5.5,5.5,5.5h68.8c3.1,0,5.6-2.4,5.7-5.5V46.6C80,43.6,77.5,41.1,74.5,41.1z
			"/>
	</g>
</g>
</svg>
