<?xml version="1.0" encoding="utf-8"?>
<!-- Generator: Adobe Illustrator 22.1.0, SVG Export Plug-In . SVG Version: 6.00 Build 0)  -->
<svg version="1.1" id="Capa_1" xmlns="http://www.w3.org/2000/svg" xmlns:xlink="http://www.w3.org/1999/xlink" x="0px" y="0px"
	 viewBox="0 0 95 95" style="enable-background:new 0 0 95 95;" xml:space="preserve">
<style type="text/css">
	.st0{fill:#5697D7;}
</style>
<title>icon-webRecurso 1</title>
<g id="Capa_2_1_">
	<g id="Capa_1-2">
		<path class="st0" d="M47.5,0C21.3,0,0,21.3,0,47.5S21.3,95,47.5,95S95,73.7,95,47.5C95,21.3,73.7,0,47.5,0z M83.2,29.3h-12
			c-1.3-6.5-3.7-12.7-7.2-18.4C72.3,14.7,79.1,21.2,83.2,29.3z M87.6,47.5c0,3.7-0.5,7.3-1.5,10.8H72.5c0.4-3.6,0.6-7.2,0.6-10.8
			c0-3.6-0.2-7.2-0.6-10.8h13.7C87.1,40.2,87.6,43.9,87.6,47.5z M7.4,47.5c0-3.7,0.5-7.3,1.5-10.8h13.7c-0.8,7.2-0.8,14.4,0,21.6
			H8.9C7.9,54.8,7.4,51.2,7.4,47.5z M29.3,47.5c0-3.6,0.3-7.2,0.8-10.8h13.8v21.6H30.1C29.6,54.7,29.3,51.1,29.3,47.5z M51.2,8.3
			c5.5,2.6,9.9,11,12.3,21.1H51.2V8.3z M43.8,8.3v21.1H31.5C33.9,19.3,38.3,10.9,43.8,8.3z M43.8,65.7v21.1
			c-5.5-2.6-9.9-11-12.3-21.1H43.8z M51.2,86.7V65.6h12.3C61.1,75.7,56.7,84.1,51.2,86.7z M51.2,58.3V36.7H65
			c0.5,3.6,0.8,7.2,0.8,10.8c0,3.6-0.3,7.2-0.8,10.8L51.2,58.3z M31,11c-3.4,5.7-5.9,11.9-7.2,18.4h-12C15.9,21.2,22.7,14.7,31,11z
			 M11.8,65.7h12c1.3,6.5,3.7,12.7,7.2,18.4C22.7,80.3,15.9,73.8,11.8,65.7z M64,84c3.4-5.7,5.9-11.9,7.2-18.4h12
			C79.1,73.8,72.3,80.3,64,84z"/>
	</g>
</g>
</svg>
