<?xml version="1.0" encoding="utf-8"?>
<!-- Generator: Adobe Illustrator 22.1.0, SVG Export Plug-In . SVG Version: 6.00 Build 0)  -->
<svg version="1.1" id="Capa_1" xmlns="http://www.w3.org/2000/svg" xmlns:xlink="http://www.w3.org/1999/xlink" x="0px" y="0px"
	 viewBox="0 0 400.7 512" style="enable-background:new 0 0 400.7 512;" xml:space="preserve">
<style type="text/css">
	.st0{fill:#4A4A4A;}
</style>
<title>docsRecurso 1</title>
<g id="Capa_2_1_">
	<g id="Capa_1-2">
		<polygon class="st0" points="267.1,9.8 267.1,133.6 390.9,133.6 		"/>
		<path class="st0" d="M250.4,167c-9.2,0-16.7-7.5-16.7-16.7V0h-217C7.5,0,0,7.5,0,16.7c0,0,0,0,0,0v478.6c0,9.2,7.5,16.7,16.7,16.7
			c0,0,0,0,0,0H384c9.2,0,16.7-7.5,16.7-16.7v0V167H250.4z M217,411.8H83.5c-9.2,0-16.7-7.5-16.7-16.7c0-9.2,7.5-16.7,16.7-16.7H217
			c9.2,0,16.7,7.5,16.7,16.7C233.7,404.3,226.2,411.8,217,411.8C217,411.8,217,411.8,217,411.8z M317.2,345H83.5
			c-9.2,0.2-16.9-7.1-17.1-16.3c-0.2-9.2,7.1-16.9,16.3-17.1c0.3,0,0.5,0,0.8,0h233.7c9.2,0.2,16.5,7.9,16.3,17.1
			C333.3,337.6,326.1,344.8,317.2,345z M317.2,278.2H83.5c-9.2,0.2-16.9-7.1-17.1-16.3c-0.2-9.2,7.1-16.9,16.3-17.1
			c0.3,0,0.5,0,0.8,0h233.7c9.2,0.2,16.5,7.9,16.3,17.1C333.3,270.8,326.1,278,317.2,278.2z"/>
	</g>
</g>
</svg>
