<svg xmlns="http://www.w3.org/2000/svg" viewBox="0 0 30 30"><defs><style>.cls-1{fill:#f6f6f6;}</style></defs><title>icon-ins-Recurso 1</title><g id="Capa_2" data-name="Capa 2"><g id="Capa_1-2" data-name="Capa 1"><path class="cls-1" d="M23.66,30H6.34A6.34,6.34,0,0,1,0,23.66V6.34A6.34,6.34,0,0,1,6.34,0H23.66A6.34,6.34,0,0,1,30,6.34V23.66A6.34,6.34,0,0,1,23.66,30ZM6.34,2A4.34,4.34,0,0,0,2,6.34V23.66A4.34,4.34,0,0,0,6.34,28H23.66A4.34,4.34,0,0,0,28,23.66V6.34A4.34,4.34,0,0,0,23.66,2Z"/><path class="cls-1" d="M15,22.53A7.53,7.53,0,1,1,22.53,15,7.53,7.53,0,0,1,15,22.53ZM15,9.46A5.53,5.53,0,1,0,20.53,15,5.54,5.54,0,0,0,15,9.46Z"/><path class="cls-1" d="M23.46,8.9A2.55,2.55,0,1,1,26,6.34h0A2.57,2.57,0,0,1,23.46,8.9Zm0-4.11A1.55,1.55,0,1,0,25,6.35,1.56,1.56,0,0,0,23.46,4.79Z"/></g></g></svg>