<svg xmlns="http://www.w3.org/2000/svg" viewBox="0 0 20.56 25.14"><title>icon-downRecurso 1</title><g id="Capa_2" data-name="Capa 2"><g id="Capa_1-2" data-name="Capa 1"><path d="M10.26,0A1.14,1.14,0,0,0,9.14,1.14v0h0V21.24L2,14.05a1.12,1.12,0,0,0-.81-.33,1.14,1.14,0,0,0-.8,1.95L9.47,24.8h0l0,0h0l.05,0h0l0,0h0l.06,0h0l0,0h0l0,0h.05l0,0h0l.05,0h0l0,0h.52l.06,0h0l.05,0h0l.08,0h0l.07,0h0l.09,0h0l.07,0h0l0,0h0l.08-.06h0l.05,0,9.14-9.14a1.16,1.16,0,0,0,.34-.82,1.14,1.14,0,0,0-1.14-1.14h0a1.14,1.14,0,0,0-.79.35h0l-7.18,7.18V1.16h0A1.15,1.15,0,0,0,10.28,0Z"/></g></g></svg>